<svg width="184" height="37" viewBox="0 0 184 37" fill="none" xmlns="http://www.w3.org/2000/svg">
<path d="M35.2279 31.1581C34.7188 32.3696 33.9122 33.433 32.8828 34.25C32.1305 34.8414 31.2744 35.2871 30.3585 35.5645C28.9362 35.9079 27.4743 36.0587 26.0118 36.0126H9.89485C8.43733 36.0597 6.98015 35.9089 5.56313 35.5645C4.63621 35.2919 3.76945 34.8459 3.00891 34.25C2.00974 33.457 1.21997 32.4313 0.708617 31.2626C0.157304 29.588 -0.0757404 27.8249 0.0215164 26.0646V26.0646V9.90275C-0.0579379 8.17627 0.180013 6.44986 0.723554 4.80924C1.22648 3.63136 2.01131 2.59519 3.00891 1.79198C3.76498 1.19778 4.62652 0.751806 5.54819 0.477523C6.96521 0.133052 8.42239 -0.0176907 9.87992 0.0294144H26.0567C27.5191 -0.0166644 28.981 0.134055 30.4033 0.477523C31.3034 0.759928 32.1439 1.20549 32.8828 1.79198C33.882 2.58503 34.6718 3.6107 35.1831 4.77937C35.7253 6.43039 35.9582 8.16724 35.8702 9.90275V26.0646C35.969 27.7874 35.7513 29.5137 35.2279 31.1581V31.1581Z" fill="url(#paint0_linear)"/>
<path d="M20.5747 20.6721C20.2218 20.3474 19.8072 20.0968 19.3557 19.9352C18.9041 19.7735 18.4247 19.7041 17.9458 19.7311C17.4719 19.7082 16.9981 19.7795 16.552 19.9411C16.1058 20.1026 15.6962 20.3511 15.3468 20.6721C15.0689 20.9472 14.8992 21.313 14.8688 21.7028C14.7745 22.6065 14.7745 23.5176 14.8688 24.4213C14.9584 25.5267 15.1377 26.9905 15.3767 28.4842C15.4705 29.1748 15.6102 29.8585 15.7949 30.5305C15.9607 30.9378 16.2542 31.2804 16.6313 31.5066C17.0083 31.7329 17.4487 31.8306 17.8861 31.7852C18.3255 31.8315 18.7682 31.7343 19.1478 31.5082C19.5274 31.282 19.8237 30.939 19.9922 30.5305C20.1769 29.8585 20.3166 29.1748 20.4104 28.4842C20.6345 26.9905 20.8137 25.4968 20.9033 24.4213C20.9976 23.5176 20.9976 22.6065 20.9033 21.7028C20.9145 21.3318 20.7985 20.9682 20.5747 20.6721V20.6721ZM15.0481 15.6085C15.0481 16.1994 15.2233 16.7769 15.5515 17.2682C15.8798 17.7595 16.3463 18.1424 16.8922 18.3685C17.4381 18.5946 18.0388 18.6538 18.6183 18.5385C19.1978 18.4232 19.7301 18.1387 20.1479 17.7209C20.5656 17.3031 20.8502 16.7708 20.9654 16.1913C21.0807 15.6118 21.0215 15.0112 20.7954 14.4653C20.5693 13.9194 20.1864 13.4528 19.6952 13.1246C19.2039 12.7963 18.6263 12.6211 18.0354 12.6211C17.2431 12.6211 16.4833 12.9359 15.923 13.4961C15.3628 14.0563 15.0481 14.8162 15.0481 15.6085ZM17.9458 4.00248C14.9684 4.01616 12.0914 5.08076 9.82227 7.00852C7.55313 8.93627 6.03756 11.6034 5.54286 14.5394C5.04815 17.4755 5.60609 20.492 7.11826 23.0569C8.63044 25.6217 10.9997 27.5703 13.8083 28.5589C13.8365 28.5664 13.8662 28.5669 13.8947 28.5603C13.9232 28.5537 13.9496 28.5402 13.9717 28.5211C13.9938 28.5019 14.0109 28.4777 14.0215 28.4504C14.032 28.4232 14.0358 28.3937 14.0323 28.3647C13.9577 27.9315 13.8979 27.4983 13.8382 27.0801C13.8322 27.0048 13.8053 26.9327 13.7604 26.8719C13.7155 26.8112 13.6545 26.7643 13.5842 26.7366C11.2705 25.7095 9.38081 23.9174 8.23256 21.6614C7.08431 19.4054 6.7475 16.8229 7.27871 14.3479C7.80992 11.8728 9.17679 9.65602 11.1497 8.06989C13.1226 6.48377 15.5812 5.62497 18.1126 5.6378C20.644 5.65063 23.0938 6.5343 25.0505 8.14034C27.0072 9.74638 28.3516 11.9769 28.8577 14.4572C29.3638 16.9375 29.0008 19.5165 27.8297 21.7607C26.6587 24.005 24.7509 25.7778 22.4269 26.7814C22.3567 26.8091 22.2956 26.856 22.2507 26.9168C22.2058 26.9775 22.1789 27.0496 22.173 27.1249C22.173 27.5431 22.0535 27.9763 21.9788 28.4095C21.9754 28.4385 21.9791 28.468 21.9897 28.4952C22.0003 28.5225 22.0173 28.5467 22.0394 28.5659C22.0615 28.585 22.088 28.5985 22.1165 28.6051C22.1449 28.6117 22.1746 28.6112 22.2029 28.6037C25.0544 27.6357 27.4665 25.6812 29.0047 23.0923C30.5429 20.5034 31.1059 17.4503 30.5925 14.483C30.079 11.5157 28.5228 8.82936 26.2041 6.90785C23.8855 4.98634 20.9568 3.95601 17.9458 4.00248V4.00248ZM17.7218 9.79803C19.1159 9.74321 20.4934 10.1159 21.6697 10.8663C22.8459 11.6166 23.7646 12.7086 24.3026 13.9959C24.8406 15.2832 24.9722 16.7042 24.6796 18.0683C24.3871 19.4325 23.6844 20.6746 22.6659 21.6281C22.6122 21.6835 22.57 21.7489 22.5418 21.8207C22.5136 21.8925 22.4999 21.9692 22.5016 22.0463C22.5338 22.5437 22.5338 23.0427 22.5016 23.54C22.5026 23.571 22.5116 23.6012 22.5278 23.6276C22.5439 23.6541 22.5666 23.6759 22.5937 23.6909C22.6208 23.706 22.6513 23.7137 22.6823 23.7135C22.7133 23.7132 22.7436 23.7049 22.7705 23.6894C24.2675 22.6706 25.3986 21.1989 25.9978 19.4901C26.5969 17.7812 26.6326 15.9254 26.0996 14.1948C25.5666 12.4642 24.493 10.95 23.0363 9.87441C21.5795 8.79881 19.8164 8.21842 18.0056 8.21842C16.1948 8.21842 14.4316 8.79881 12.9749 9.87441C11.5181 10.95 10.4445 12.4642 9.91151 14.1948C9.3785 15.9254 9.41421 17.7812 10.0134 19.4901C10.6126 21.1989 11.7436 22.6706 13.2407 23.6894C13.2663 23.7062 13.2961 23.7155 13.3268 23.7162C13.3574 23.717 13.3876 23.7091 13.414 23.6936C13.4405 23.6781 13.462 23.6555 13.4762 23.6283C13.4905 23.6012 13.4968 23.5706 13.4946 23.54C13.4946 23.0322 13.4946 22.5691 13.4946 22.0463C13.5023 21.9686 13.4915 21.8901 13.4629 21.8174C13.4343 21.7447 13.3889 21.6798 13.3303 21.6281C12.3486 20.6984 11.6638 19.4993 11.3618 18.1814C11.0598 16.8636 11.1542 15.4859 11.6332 14.2215C12.1121 12.9572 12.9541 11.8627 14.0534 11.0756C15.1527 10.2885 16.4602 9.84403 17.8114 9.79803H17.7218Z" fill="white"/>
<path d="M53.2564 28.5287H47.7148L46.3257 32.4571H44.0254L49.3131 17.8936H51.7627L57.0206 32.4571H54.6306L53.2564 28.5287ZM48.2824 26.7811H52.6888L50.523 20.388L48.2824 26.7811Z" fill="#0A0A0B"/>
<path d="M68.3434 27.155C68.3434 30.4561 66.5809 32.5771 63.8623 32.5771C63.1854 32.6125 62.5123 32.456 61.9203 32.1257C61.3284 31.7954 60.8418 31.3047 60.5164 30.71V30.71V35.9828H58.3506V21.8375H60.4567V23.6C60.8023 23.0131 61.2994 22.53 61.896 22.2015C62.4926 21.873 63.1667 21.7111 63.8474 21.7329C66.5659 21.7329 68.3434 23.7942 68.3434 27.155ZM66.1029 27.155C66.1029 25.0041 64.9975 23.5851 63.2947 23.5851C61.5919 23.5851 60.5164 25.0788 60.5164 27.155C60.5164 29.2313 61.6367 30.725 63.2947 30.725C64.9527 30.725 66.1029 29.3209 66.1029 27.155Z" fill="#0A0A0B"/>
<path d="M80.039 27.1553C80.039 30.4564 78.2765 32.5774 75.5579 32.5774C74.8835 32.6099 74.2135 32.4521 73.6245 32.1219C73.0355 31.7918 72.5512 31.3026 72.227 30.7103V30.7103V35.9831H70.0312V21.8377H72.1523V23.6003C72.4966 23.0123 72.9936 22.5284 73.5904 22.1997C74.1873 21.871 74.862 21.7098 75.543 21.7332C78.2615 21.7332 80.039 23.7945 80.039 27.1553ZM77.7985 27.1553C77.7985 25.0044 76.6931 23.5854 74.9903 23.5854C73.2875 23.5854 72.2121 25.0791 72.2121 27.1553C72.2121 29.2315 73.3323 30.7252 74.9903 30.7252C76.6483 30.7252 77.7985 29.3212 77.7985 27.1553Z" fill="#0A0A0B"/>
<path d="M81.8018 17.8936H83.9826V32.4571H81.8018V17.8936Z" fill="#0A0A0B"/>
<path d="M95.3344 29.3354C95.0969 30.3401 94.5024 31.2243 93.6615 31.8234C92.8207 32.4224 91.7908 32.6954 90.7636 32.5917C87.6717 32.5917 85.7598 30.5154 85.7598 27.1994C85.7598 23.8834 87.6866 21.7026 90.674 21.7026C93.6614 21.7026 95.4688 23.7938 95.4688 26.9455V27.6924H88.0003V27.8268C87.9682 28.217 88.0194 28.6096 88.1506 28.9786C88.2817 29.3476 88.4897 29.6844 88.7609 29.9669C89.0321 30.2494 89.3602 30.471 89.7235 30.617C90.0868 30.7631 90.477 30.8303 90.8682 30.8142C91.3832 30.8639 91.9004 30.7452 92.3421 30.4758C92.7839 30.2065 93.1262 29.8011 93.3179 29.3205L95.3344 29.3354ZM87.9704 26.1688H93.2731C93.2938 25.8179 93.2416 25.4665 93.1195 25.1368C92.9974 24.8072 92.8082 24.5065 92.5639 24.2537C92.3196 24.001 92.0255 23.8018 91.7002 23.6686C91.3749 23.5354 91.0254 23.4713 90.674 23.4801C90.3191 23.4762 89.967 23.5429 89.6382 23.6764C89.3094 23.8099 89.0104 24.0076 88.7587 24.2579C88.5071 24.5081 88.3078 24.806 88.1724 25.1341C88.0371 25.4621 87.9684 25.8139 87.9704 26.1688V26.1688Z" fill="#0A0A0B"/>
<path d="M107.075 17.8939C107.711 17.862 108.348 17.9636 108.943 18.1923C109.538 18.421 110.079 18.7717 110.531 19.2219C110.982 19.672 111.335 20.2117 111.565 20.8062C111.796 21.4007 111.899 22.0368 111.869 22.6738C111.898 23.318 111.79 23.961 111.555 24.5612C111.319 25.1615 110.961 25.7058 110.502 26.1589C110.043 26.6121 109.494 26.9641 108.891 27.1922C108.288 27.4203 107.644 27.5196 107 27.4835H103.878V32.4575H101.593V17.8939H107.075ZM103.878 25.5865H106.462C106.864 25.6407 107.273 25.6046 107.66 25.4811C108.046 25.3575 108.4 25.1494 108.696 24.872C108.992 24.5945 109.223 24.2546 109.371 23.877C109.52 23.4994 109.582 23.0935 109.554 22.6887C109.582 22.2859 109.52 21.8819 109.373 21.5061C109.225 21.1302 108.996 20.792 108.701 20.5159C108.406 20.2398 108.054 20.0329 107.669 19.9101C107.284 19.7872 106.877 19.7516 106.477 19.8059H103.878V25.5865Z" fill="#0A0A0B"/>
<path d="M112.661 27.1546C112.661 23.8087 114.633 21.7026 117.71 21.7026C120.787 21.7026 122.744 23.8087 122.744 27.1546C122.744 30.5005 120.802 32.5917 117.71 32.5917C114.618 32.5917 112.661 30.5005 112.661 27.1546ZM120.518 27.1546C120.518 24.8543 119.472 23.51 117.71 23.51C115.947 23.51 114.887 24.8693 114.887 27.1546C114.887 29.44 115.932 30.7993 117.71 30.7993C119.487 30.7993 120.518 29.4549 120.518 27.1546Z" fill="#0A0A0B"/>
<path d="M124.282 27.1545C124.282 23.8683 126.09 21.7324 128.763 21.7324C129.438 21.6981 130.109 21.8552 130.698 22.1855C131.287 22.5159 131.771 23.006 132.094 23.5995V23.5995V17.8936H134.275V32.4571H132.154V30.6497C131.829 31.2591 131.338 31.7637 130.738 32.1048C130.138 32.446 129.453 32.6096 128.763 32.5766C126.09 32.5766 124.282 30.4257 124.282 27.1545ZM126.508 27.1545C126.508 29.3353 127.613 30.7244 129.316 30.7244C131.019 30.7244 132.109 29.3054 132.109 27.1545C132.109 25.0036 130.989 23.5845 129.316 23.5845C127.643 23.5845 126.508 24.9886 126.508 27.1545V27.1545Z" fill="#0A0A0B"/>
<path d="M143.566 25.4976C143.47 24.9157 143.159 24.3912 142.694 24.0285C142.229 23.6659 141.644 23.4918 141.057 23.5409C139.384 23.5409 138.263 24.945 138.263 27.1556C138.263 29.3663 139.384 30.7704 141.072 30.7704C141.65 30.828 142.229 30.6643 142.692 30.3124C143.155 29.9604 143.467 29.4463 143.566 28.8734H145.657C145.526 29.9704 144.971 30.9728 144.112 31.6673C143.253 32.3619 142.157 32.6939 141.057 32.5927C138.069 32.5927 136.053 30.5165 136.053 27.1556C136.053 23.7948 138.024 21.7037 141.042 21.7037C142.152 21.6114 143.254 21.9564 144.113 22.6651C144.973 23.3739 145.521 24.3903 145.642 25.4976H143.566Z" fill="#0A0A0B"/>
<path d="M147.001 29.4407C147.001 27.5885 148.42 26.4533 150.944 26.3188L153.857 26.1545V25.2882C153.857 24.1082 153.08 23.436 151.751 23.436C151.262 23.3724 150.766 23.4888 150.357 23.7637C149.947 24.0385 149.652 24.453 149.525 24.9297H147.479C147.479 23.0178 149.331 21.6436 151.811 21.6436C154.29 21.6436 156.023 23.0327 156.023 25.1239V32.4579H153.872V30.7103C153.535 31.3027 153.046 31.794 152.455 32.1329C151.864 32.4718 151.192 32.646 150.511 32.6372C150.066 32.6787 149.618 32.627 149.194 32.4853C148.77 32.3435 148.381 32.1149 148.05 31.8141C147.72 31.5132 147.456 31.1467 147.275 30.7381C147.095 30.3294 147.001 29.8875 147.001 29.4407V29.4407ZM153.857 28.4847V27.6632L151.243 27.8275C149.929 27.9021 149.197 28.4698 149.197 29.3212C149.197 30.1726 149.958 30.8149 151.139 30.8149C151.471 30.8414 151.805 30.8022 152.123 30.6995C152.44 30.5967 152.734 30.4325 152.988 30.2161C153.242 29.9997 153.451 29.7354 153.602 29.4383C153.754 29.1412 153.846 28.8172 153.872 28.4847H153.857Z" fill="#0A0A0B"/>
<path d="M162.103 21.7168C164.463 21.7168 166.151 23.0163 166.195 24.8984H164.149C164.059 23.9573 163.268 23.4047 162.043 23.4047C160.818 23.4047 160.086 23.9424 160.086 24.7639C160.086 25.5855 160.609 25.8245 161.699 26.1083L163.492 26.5116C165.628 27.0344 166.479 27.826 166.479 29.3795C166.479 31.2914 164.672 32.6058 161.998 32.6058C159.324 32.6058 157.816 31.3213 157.651 29.3795H159.847C160.011 30.4101 160.818 30.9478 162.147 30.9478C163.477 30.9478 164.268 30.4101 164.268 29.5736C164.268 28.7372 163.865 28.5579 162.775 28.2741L160.878 27.8111C158.966 27.348 157.995 26.3174 157.995 24.8984C157.95 23.0014 159.638 21.7168 162.103 21.7168Z" fill="#0A0A0B"/>
<path d="M171.185 19.313V21.8224H173.201V23.5551H171.185V29.4104C171.185 30.3215 171.588 30.7398 172.469 30.7398H173.186V32.4575C172.787 32.5274 172.381 32.5574 171.976 32.5471C169.825 32.5471 168.989 31.7405 168.989 29.6792V23.57H167.495V21.8373H168.989V19.313H171.185Z" fill="#0A0A0B"/>
<path d="M179.056 21.7168C181.416 21.7168 183.104 23.0163 183.149 24.8984H181.102C181.013 23.9573 180.221 23.4047 178.996 23.4047C177.772 23.4047 177.04 23.9424 177.04 24.7639C177.04 25.5855 177.562 25.8245 178.653 26.1083L180.445 26.5116C182.581 27.0344 183.433 27.826 183.433 29.3795C183.433 31.2914 181.625 32.6058 179.026 32.6058C176.427 32.6058 174.784 31.2615 174.635 29.3645H176.786C176.95 30.3952 177.757 30.9329 179.086 30.9329C180.415 30.9329 181.207 30.3952 181.207 29.5587C181.207 28.7222 180.804 28.543 179.713 28.2592L177.772 27.7961C175.86 27.3331 174.889 26.3024 174.889 24.8834C174.904 23.0014 176.592 21.7168 179.056 21.7168Z" fill="#0A0A0B"/>
<path d="M45.2656 12.2776V4.37598H46.3261V11.2619H49.7168V12.2179L45.2656 12.2776Z" fill="#747577"/>
<path d="M52.0918 5.54075C51.9561 5.67374 51.774 5.74873 51.584 5.74987C51.4897 5.7501 51.3964 5.73175 51.3092 5.69587C51.2221 5.65999 51.1429 5.60727 51.0761 5.54075C51.0093 5.47414 50.9562 5.39499 50.92 5.30784C50.8839 5.22069 50.8652 5.12726 50.8652 5.03289C50.8652 4.93853 50.8839 4.84509 50.92 4.75795C50.9562 4.6708 51.0093 4.59165 51.0761 4.52504C51.1429 4.45852 51.2221 4.4058 51.3092 4.36992C51.3964 4.33404 51.4897 4.31569 51.584 4.31592C51.726 4.31557 51.865 4.35743 51.9832 4.43619C52.1015 4.51495 52.1936 4.62705 52.248 4.75828C52.3024 4.88951 52.3166 5.03394 52.2888 5.17325C52.261 5.31256 52.1925 5.44047 52.0918 5.54075V5.54075ZM52.0918 12.2475H51.0761V6.88508H52.0918V12.2475Z" fill="#747577"/>
<path d="M55.8412 12.4264C55.3096 12.447 54.7856 12.295 54.3475 11.9932C53.9714 11.7123 53.6775 11.3358 53.4961 10.9028L54.3923 10.5294C54.4989 10.8358 54.7022 11.0991 54.9717 11.2797C55.2412 11.4603 55.5621 11.5482 55.886 11.5302C56.1598 11.5377 56.4298 11.465 56.6627 11.3211C56.7557 11.2622 56.832 11.1805 56.8843 11.0837C56.9366 10.987 56.9632 10.8784 56.9615 10.7684C56.9615 10.4248 56.7225 10.1859 56.2296 10.0664L55.1392 9.79749C54.7856 9.70034 54.4553 9.53267 54.1683 9.30457C54.02 9.18404 53.9012 9.03122 53.8209 8.85778C53.7407 8.68433 53.7011 8.49485 53.7052 8.30379C53.7044 8.07475 53.7615 7.84922 53.8712 7.64815C53.9809 7.44708 54.1396 7.27697 54.3326 7.15365C54.772 6.85312 55.294 6.69654 55.8263 6.70554C56.2716 6.69688 56.7107 6.81055 57.0959 7.03415C57.4598 7.24094 57.7399 7.56858 57.8876 7.96024L57.0212 8.31873C56.9178 8.08281 56.7418 7.88606 56.5188 7.7571C56.2958 7.62815 56.0375 7.57372 55.7815 7.60176C55.5198 7.59995 55.2622 7.66691 55.0346 7.79594C54.9392 7.84168 54.8589 7.91385 54.8033 8.00387C54.7477 8.0939 54.7191 8.198 54.7209 8.30379C54.7209 8.60253 54.9599 8.81165 55.4379 8.91621L56.4984 9.17014C56.928 9.24857 57.3208 9.46332 57.6187 9.78255C57.8468 10.0492 57.9737 10.3876 57.9772 10.7385C57.9795 10.9729 57.9267 11.2046 57.8229 11.4148C57.7191 11.625 57.5673 11.8078 57.3797 11.9484C56.9394 12.2844 56.3944 12.4538 55.8412 12.4264V12.4264Z" fill="#747577"/>
<path d="M61.5317 12.3377C61.2941 12.3848 61.0487 12.3734 60.8165 12.3045C60.5843 12.2356 60.3723 12.1113 60.1988 11.9422C60.0254 11.7732 59.8956 11.5645 59.8208 11.3342C59.7459 11.1038 59.7282 10.8587 59.7692 10.62V7.81184H58.8281V6.88574H59.7692V5.24268H60.7699V6.88574H62.0993V7.81184H60.7699V10.5453C60.7699 11.1278 61.0239 11.4266 61.5018 11.4266C61.6608 11.4299 61.8187 11.3994 61.9649 11.337L62.3084 12.2033C62.0602 12.2963 61.7968 12.3419 61.5317 12.3377V12.3377Z" fill="#747577"/>
<path d="M65.9083 12.4275C65.5388 12.4421 65.1705 12.3777 64.8279 12.2386C64.4853 12.0995 64.1764 11.8889 63.9217 11.6209C63.4078 11.0659 63.134 10.3304 63.1599 9.57454C63.1499 8.83297 63.4161 8.11421 63.9067 7.55805C64.132 7.2903 64.4133 7.07526 64.7307 6.92815C65.0482 6.78103 65.3941 6.70541 65.744 6.70664C66.0994 6.69412 66.4534 6.75685 66.7829 6.8907C67.1124 7.02456 67.4099 7.22652 67.6559 7.48336C68.1535 8.0631 68.4101 8.81145 68.3729 9.57454V9.75378H64.2503C64.2556 10.2356 64.4485 10.6964 64.788 11.0384C64.9412 11.1907 65.123 11.3114 65.3229 11.3934C65.5229 11.4754 65.737 11.5172 65.9531 11.5163C66.268 11.5397 66.5822 11.4626 66.8506 11.2962C67.1189 11.1298 67.3277 10.8827 67.4468 10.5903L68.3579 10.9637C68.1694 11.3844 67.8699 11.7458 67.4916 12.0093C67.0259 12.3229 66.4681 12.4702 65.9083 12.4275V12.4275ZM67.402 8.91731C67.3702 8.58794 67.2219 8.28072 66.9837 8.05097C66.6934 7.79512 66.3233 7.64784 65.9366 7.63422C65.5498 7.6206 65.1703 7.74149 64.8627 7.97628C64.5774 8.20438 64.3646 8.5106 64.2503 8.85757L67.402 8.91731Z" fill="#747577"/>
<path d="M70.7482 6.88624V7.63309C70.9109 7.35373 71.149 7.12593 71.4353 6.97587C71.739 6.79862 72.0845 6.70579 72.4361 6.707C72.7148 6.69294 72.9932 6.74053 73.2514 6.84639C73.5096 6.95224 73.7412 7.11376 73.9298 7.31942C74.3053 7.78221 74.4967 8.36726 74.4676 8.96248V12.2486H73.4518V9.12679C73.4518 8.12601 73.0187 7.63309 72.1224 7.63309C71.9262 7.62899 71.7318 7.67153 71.5552 7.75722C71.3786 7.84292 71.2249 7.96931 71.1067 8.12601C70.8441 8.45653 70.7066 8.86912 70.7184 9.2911V12.2785H69.7773V6.88624H70.7482Z" fill="#747577"/>
<path d="M79.4709 7.52803C79.7317 7.26699 80.0414 7.0599 80.3822 6.91861C80.7231 6.77731 81.0885 6.70459 81.4575 6.70459C81.8265 6.70459 82.1919 6.77731 82.5328 6.91861C82.8736 7.0599 83.1833 7.26699 83.4441 7.52803C83.9449 8.08912 84.2216 8.81488 84.2216 9.56693C84.2216 10.319 83.9449 11.0447 83.4441 11.6058C83.1833 11.8669 82.8736 12.074 82.5328 12.2153C82.1919 12.3565 81.8265 12.4293 81.4575 12.4293C81.0885 12.4293 80.7231 12.3565 80.3822 12.2153C80.0414 12.074 79.7317 11.8669 79.4709 11.6058C78.9701 11.0447 78.6934 10.319 78.6934 9.56693C78.6934 8.81488 78.9701 8.08912 79.4709 7.52803V7.52803ZM80.2327 10.9785C80.3871 11.1497 80.5761 11.2862 80.7873 11.3789C80.9985 11.4716 81.2269 11.5184 81.4575 11.5162C81.69 11.5168 81.9202 11.4694 82.1335 11.3768C82.3469 11.2843 82.5388 11.1487 82.6973 10.9785C82.873 10.7907 83.0098 10.5699 83.0995 10.3289C83.1893 10.0879 83.2302 9.83139 83.2201 9.5744C83.2408 9.30282 83.2051 9.02988 83.1151 8.7728C83.0251 8.51571 82.8828 8.28006 82.6973 8.0807C82.5359 7.91529 82.3431 7.78383 82.1302 7.69405C81.9173 7.60427 81.6886 7.55798 81.4575 7.55791C81.2284 7.55655 81.0015 7.60224 80.7908 7.69217C80.5801 7.7821 80.3902 7.91434 80.2327 8.0807C80.0439 8.27792 79.8996 8.51328 79.8095 8.77092C79.7193 9.02857 79.6853 9.30253 79.7099 9.5744C79.6962 9.83176 79.7356 10.0892 79.8255 10.3307C79.9155 10.5722 80.054 10.7927 80.2327 10.9785V10.9785Z" fill="#747577"/>
<path d="M86.4317 6.88501V7.63186C86.5986 7.35584 86.8357 7.12905 87.1188 6.97463C87.428 6.79749 87.7783 6.70477 88.1345 6.70577C88.4188 6.69818 88.7012 6.75311 88.9619 6.86667C89.2226 6.98024 89.4552 7.14967 89.6432 7.363C90.0072 7.83113 90.1926 8.41364 90.166 9.00606V12.2922H89.1652V9.12556C89.1652 8.12478 88.7171 7.63186 87.8358 7.63186C87.6394 7.62652 87.4446 7.66852 87.2678 7.75431C87.091 7.84011 86.9374 7.96717 86.8201 8.12478C86.5533 8.45387 86.4105 8.86624 86.4168 9.28987V12.2773H85.416V6.88501H86.4317Z" fill="#747577"/>
<defs>
<linearGradient id="paint0_linear" x1="17.9758" y1="0.0294144" x2="17.9758" y2="35.9379" gradientUnits="userSpaceOnUse">
<stop stop-color="#F452FF"/>
<stop offset="1" stop-color="#832BC1"/>
</linearGradient>
</defs>
</svg>
