<svg width="751" height="709" viewBox="0 0 751 709" fill="none" xmlns="http://www.w3.org/2000/svg">
<path fill-rule="evenodd" clip-rule="evenodd" d="M348.709 23.0854C448.511 25.0324 544.101 65.4235 606.806 143.078C669.978 221.31 697.217 325.336 671.197 422.458C646.217 515.696 566.821 579.263 479.128 619.635C393.678 658.975 298.171 670.234 211.275 634.198C117.783 595.426 37.7258 523.565 11.6704 425.779C-15.4507 323.993 10.0522 213.538 77.6645 132.755C143.472 54.128 246.184 21.0853 348.709 23.0854Z" stroke="#E0E1E3"/>
<path fill-rule="evenodd" clip-rule="evenodd" d="M418.657 34.0003C562.978 34.1999 690.997 127.46 735.03 265.034C778.517 400.903 724.389 546.43 609.846 631.338C491.807 718.835 331.122 738.662 211.861 652.842C90.9098 565.806 52.33 405.563 99.5835 264.156C145.56 126.57 273.721 33.7999 418.657 34.0003Z" stroke="#E0E1E3"/>
<path fill-rule="evenodd" clip-rule="evenodd" d="M341.392 1.00683C480.824 0.287053 624.122 56.4007 670.359 188.013C719.655 328.332 662.137 483.612 541.441 570.442C422.566 655.961 262.393 652.969 144.159 566.564C26.8511 480.836 -25.1476 328.586 22.71 191.356C67.7707 62.1468 204.616 1.7129 341.392 1.00683Z" stroke="#E0E1E3"/>
</svg>
