<svg width="566" height="526" viewBox="0 0 566 526" fill="none" xmlns="http://www.w3.org/2000/svg">
<path fill-rule="evenodd" clip-rule="evenodd" d="M268.507 1.06568C345.29 2.56358 418.831 33.6382 467.073 93.3812C515.673 153.569 536.63 233.6 516.611 308.32C497.393 380.053 436.31 428.957 368.845 460.017C303.104 490.283 229.626 498.945 162.774 471.221C90.846 441.392 29.2547 386.106 9.20919 310.875C-11.6562 232.567 7.96427 147.589 59.9813 85.4395C110.61 24.9481 189.631 -0.473066 268.507 1.06568Z" stroke="#E9EAEE"/>
<path fill-rule="evenodd" clip-rule="evenodd" d="M259.794 20.0588C328.335 21.3999 393.983 49.2206 437.046 102.708C480.43 156.593 499.137 228.244 481.267 295.14C464.112 359.361 409.586 403.145 349.362 430.953C290.677 458.049 225.087 465.804 165.409 440.983C101.202 414.278 46.222 364.781 28.328 297.427C9.70224 227.319 27.2168 151.24 73.6505 95.5976C118.845 41.4405 189.384 18.6812 259.794 20.0588Z" stroke="#E9EAEE"/>
<path fill-rule="evenodd" clip-rule="evenodd" d="M310.322 6.46314C421.354 6.61665 519.845 78.366 553.721 184.208C587.178 288.737 545.534 400.698 457.411 466.02C366.599 533.336 242.977 548.59 151.224 482.565C58.1715 415.604 28.4904 292.322 64.8445 183.532C100.216 77.681 198.816 6.30898 310.322 6.46314Z" stroke="#E9EAEE"/>
</svg>
