<svg width="180" height="37" viewBox="0 0 180 37" fill="none" xmlns="http://www.w3.org/2000/svg">
<path d="M14.4375 10.521V15.5216V17.5204V22.521H18.5625V17.5204V15.5216V10.521H14.4375Z" fill="#FAB908"/>
<path d="M2.0625 17.4585C3.20159 17.4585 4.125 16.5351 4.125 15.396C4.125 14.2569 3.20159 13.3335 2.0625 13.3335C0.923413 13.3335 0 14.2569 0 15.396C0 16.5351 0.923413 17.4585 2.0625 17.4585Z" fill="#0066D9"/>
<path d="M2.0625 19.7085C3.20159 19.7085 4.125 18.7851 4.125 17.646C4.125 16.5069 3.20159 15.5835 2.0625 15.5835C0.923413 15.5835 0 16.5069 0 17.646C0 18.7851 0.923413 19.7085 2.0625 19.7085Z" fill="#0066D9"/>
<path d="M4.125 15.396H0V17.646H4.125V15.396Z" fill="#0066D9"/>
<path d="M30.9375 19.7085C32.0766 19.7085 33 18.7851 33 17.646C33 16.5069 32.0766 15.5835 30.9375 15.5835C29.7984 15.5835 28.875 16.5069 28.875 17.646C28.875 18.7851 29.7984 19.7085 30.9375 19.7085Z" fill="#4285F4"/>
<path d="M30.9375 17.4585C32.0766 17.4585 33 16.5351 33 15.396C33 14.2569 32.0766 13.3335 30.9375 13.3335C29.7984 13.3335 28.875 14.2569 28.875 15.396C28.875 16.5351 29.7984 17.4585 30.9375 17.4585Z" fill="#4285F4"/>
<path d="M28.875 17.646H33V15.396H28.875V17.646Z" fill="#4285F4"/>
<path d="M9.1875 24.2085C10.3266 24.2085 11.25 23.2851 11.25 22.146C11.25 21.0069 10.3266 20.0835 9.1875 20.0835C8.04841 20.0835 7.125 21.0069 7.125 22.146C7.125 23.2851 8.04841 24.2085 9.1875 24.2085Z" fill="#EA4335"/>
<path d="M9.1875 26.4585C10.3266 26.4585 11.25 25.5351 11.25 24.396C11.25 23.2569 10.3266 22.3335 9.1875 22.3335C8.04841 22.3335 7.125 23.2569 7.125 24.396C7.125 25.5351 8.04841 26.4585 9.1875 26.4585Z" fill="#EA4335"/>
<path d="M11.25 22.146H7.125V24.396H11.25V22.146Z" fill="#EA4335"/>
<path d="M9.1875 10.7085C10.3266 10.7085 11.25 9.78508 11.25 8.646C11.25 7.50691 10.3266 6.5835 9.1875 6.5835C8.04841 6.5835 7.125 7.50691 7.125 8.646C7.125 9.78508 8.04841 10.7085 9.1875 10.7085Z" fill="#EA4335"/>
<path d="M9.1875 18.021C10.3266 18.021 11.25 17.0976 11.25 15.9585C11.25 14.8194 10.3266 13.896 9.1875 13.896C8.04841 13.896 7.125 14.8194 7.125 15.9585C7.125 17.0976 8.04841 18.021 9.1875 18.021Z" fill="#EA4335"/>
<path d="M11.25 8.646H7.125V16.0054H11.25V8.646Z" fill="#EA4335"/>
<path d="M23.8125 12.9585C24.9516 12.9585 25.875 12.0351 25.875 10.896C25.875 9.75691 24.9516 8.8335 23.8125 8.8335C22.6734 8.8335 21.75 9.75691 21.75 10.896C21.75 12.0351 22.6734 12.9585 23.8125 12.9585Z" fill="#34A853"/>
<path d="M23.8125 10.7085C24.9516 10.7085 25.875 9.78508 25.875 8.646C25.875 7.50691 24.9516 6.5835 23.8125 6.5835C22.6734 6.5835 21.75 7.50691 21.75 8.646C21.75 9.78508 22.6734 10.7085 23.8125 10.7085Z" fill="#34A853"/>
<path d="M21.75 10.896H25.875V8.646H21.75V10.896Z" fill="#34A853"/>
<path d="M16.5 6.396C17.6391 6.396 18.5625 5.47258 18.5625 4.3335C18.5625 3.19441 17.6391 2.271 16.5 2.271C15.3609 2.271 14.4375 3.19441 14.4375 4.3335C14.4375 5.47258 15.3609 6.396 16.5 6.396Z" fill="#FAB908"/>
<path d="M16.5 4.146C17.6391 4.146 18.5625 3.22258 18.5625 2.0835C18.5625 0.944409 17.6391 0.0209961 16.5 0.0209961C15.3609 0.0209961 14.4375 0.944409 14.4375 2.0835C14.4375 3.22258 15.3609 4.146 16.5 4.146Z" fill="#FAB908"/>
<path d="M14.4375 4.3335L18.5625 4.3335V2.0835L14.4375 2.0835V4.3335Z" fill="#FAB908"/>
<path d="M16.5 33.021C17.6391 33.021 18.5625 32.0976 18.5625 30.9585C18.5625 29.8194 17.6391 28.896 16.5 28.896C15.3609 28.896 14.4375 29.8194 14.4375 30.9585C14.4375 32.0976 15.3609 33.021 16.5 33.021Z" fill="#FAB908"/>
<path d="M16.5 30.771C17.6391 30.771 18.5625 29.8476 18.5625 28.7085C18.5625 27.5694 17.6391 26.646 16.5 26.646C15.3609 26.646 14.4375 27.5694 14.4375 28.7085C14.4375 29.8476 15.3609 30.771 16.5 30.771Z" fill="#FAB908"/>
<path d="M14.4375 30.9585H18.5625V28.7085H14.4375V30.9585Z" fill="#FAB908"/>
<path d="M23.8125 26.4585C24.9516 26.4585 25.875 25.5351 25.875 24.396C25.875 23.2569 24.9516 22.3335 23.8125 22.3335C22.6734 22.3335 21.75 23.2569 21.75 24.396C21.75 25.5351 22.6734 26.4585 23.8125 26.4585Z" fill="#34A853"/>
<path d="M23.8125 19.146C24.9516 19.146 25.875 18.2226 25.875 17.0835C25.875 15.9444 24.9516 15.021 23.8125 15.021C22.6734 15.021 21.75 15.9444 21.75 17.0835C21.75 18.2226 22.6734 19.146 23.8125 19.146Z" fill="#34A853"/>
<path d="M21.75 24.396H25.875V17.0835H21.75V24.396Z" fill="#34A853"/>
<path d="M16.5 12.5835C17.6391 12.5835 18.5625 11.6601 18.5625 10.521C18.5625 9.38191 17.6391 8.4585 16.5 8.4585C15.3609 8.4585 14.4375 9.38191 14.4375 10.521C14.4375 11.6601 15.3609 12.5835 16.5 12.5835Z" fill="#FAB908"/>
<path d="M16.5 24.5835C17.6391 24.5835 18.5625 23.6601 18.5625 22.521C18.5625 21.3819 17.6391 20.4585 16.5 20.4585C15.3609 20.4585 14.4375 21.3819 14.4375 22.521C14.4375 23.6601 15.3609 24.5835 16.5 24.5835Z" fill="#FAB908"/>
<path fill-rule="evenodd" clip-rule="evenodd" d="M110.874 30.7711H109.156V17.4058H113.711C114.843 17.4058 115.823 17.7822 116.651 18.5351C117.478 19.288 117.892 20.2369 117.892 21.3818C117.892 22.5267 117.478 23.4755 116.651 24.2284C115.823 24.9813 114.843 25.3578 113.711 25.3578H110.874V30.7711ZM110.874 23.7151H113.748C114.47 23.7151 115.049 23.4724 115.484 22.9871C115.92 22.5018 116.138 21.9667 116.138 21.3818C116.138 20.7969 115.92 20.2618 115.484 19.7764C115.049 19.2911 114.47 19.0484 113.748 19.0484H110.874V23.7151ZM119.316 22.7258C120.2 21.7924 121.326 21.3258 122.695 21.3258C124.064 21.3258 125.19 21.7893 126.074 22.7164C126.957 23.6435 127.399 24.804 127.399 26.1978C127.399 27.5915 126.957 28.752 126.074 29.6791C125.19 30.6062 124.064 31.0698 122.695 31.0698C121.326 31.0698 120.2 30.6062 119.316 29.6791C118.433 28.752 117.991 27.5915 117.991 26.1978C117.991 24.804 118.433 23.6467 119.316 22.7258ZM120.585 28.6058C121.183 29.2031 121.886 29.5018 122.695 29.5018C123.504 29.5018 124.204 29.2 124.795 28.5964C125.386 27.9929 125.682 27.1933 125.682 26.1978C125.682 25.2022 125.386 24.4027 124.795 23.7991C124.204 23.1955 123.504 22.8938 122.695 22.8938C121.886 22.8938 121.186 23.1955 120.595 23.7991C120.004 24.4027 119.708 25.2022 119.708 26.1978C119.708 27.1933 120.001 27.996 120.585 28.6058ZM132.575 31.0698C131.393 31.0698 130.372 30.6031 129.513 29.6698C128.655 28.7364 128.225 27.5791 128.225 26.1978C128.225 24.8164 128.655 23.6591 129.513 22.7258C130.372 21.7924 131.393 21.3258 132.575 21.3258C133.272 21.3258 133.897 21.4751 134.451 21.7738C135.005 22.0724 135.418 22.4458 135.692 22.8938H135.767L135.692 21.6244V17.4058H137.409V30.7711H135.767V29.5018H135.692C135.418 29.9498 135.005 30.3231 134.451 30.6218C133.897 30.9204 133.272 31.0698 132.575 31.0698ZM132.855 29.5018C133.664 29.5018 134.351 29.2031 134.917 28.6058C135.484 28.0084 135.767 27.2058 135.767 26.1978C135.767 25.1898 135.484 24.3871 134.917 23.7898C134.351 23.1924 133.664 22.8938 132.855 22.8938C132.058 22.8938 131.374 23.1955 130.801 23.7991C130.229 24.4027 129.943 25.2022 129.943 26.1978C129.943 27.1933 130.229 27.9929 130.801 28.5964C131.374 29.2 132.058 29.5018 132.855 29.5018ZM143.369 31.0698C142 31.0698 140.874 30.6062 139.991 29.6791C139.107 28.752 138.665 27.5915 138.665 26.1978C138.665 24.804 139.107 23.6435 139.991 22.7164C140.874 21.7893 142 21.3258 143.369 21.3258C144.39 21.3258 145.236 21.5746 145.908 22.0724C146.58 22.5702 147.072 23.1986 147.383 23.9578L145.815 24.6111C145.342 23.4662 144.489 22.8938 143.257 22.8938C142.498 22.8938 141.829 23.2049 141.251 23.8271C140.672 24.4493 140.383 25.2395 140.383 26.1978C140.383 27.156 140.672 27.9462 141.251 28.5684C141.829 29.1907 142.498 29.5018 143.257 29.5018C144.539 29.5018 145.423 28.9293 145.908 27.7844L147.439 28.4378C147.128 29.1844 146.627 29.8098 145.936 30.3138C145.245 30.8178 144.39 31.0698 143.369 31.0698ZM151.513 31.0698C150.543 31.0698 149.731 30.7898 149.077 30.2298C148.424 29.6698 148.097 28.9293 148.097 28.0084C148.097 27.0129 148.483 26.232 149.255 25.6658C150.026 25.0995 150.978 24.8164 152.111 24.8164C153.119 24.8164 153.946 25.0031 154.593 25.3764V25.1151C154.593 24.4431 154.363 23.9049 153.903 23.5004C153.442 23.096 152.876 22.8938 152.204 22.8938C151.706 22.8938 151.255 23.012 150.851 23.2484C150.446 23.4849 150.169 23.8084 150.02 24.2191L148.452 23.5471C148.663 22.9995 149.08 22.4924 149.703 22.0258C150.325 21.5591 151.146 21.3258 152.167 21.3258C153.336 21.3258 154.307 21.668 155.079 22.3524C155.85 23.0369 156.236 24.0013 156.236 25.2458V30.7711H154.593V29.5018H154.519C153.834 30.5471 152.832 31.0698 151.513 31.0698ZM151.793 29.5018C152.503 29.5018 153.147 29.2373 153.725 28.7084C154.304 28.1795 154.593 27.5542 154.593 26.8324C154.108 26.4342 153.38 26.2351 152.409 26.2351C151.575 26.2351 150.947 26.4155 150.524 26.7764C150.101 27.1373 149.889 27.5604 149.889 28.0458C149.889 28.4938 150.082 28.8484 150.468 29.1098C150.854 29.3711 151.295 29.5018 151.793 29.5018ZM161.262 31.0698C160.242 31.0698 159.399 30.8209 158.733 30.3231C158.067 29.8253 157.579 29.2031 157.268 28.4564L158.799 27.8218C159.284 28.9667 160.111 29.5391 161.281 29.5391C161.816 29.5391 162.255 29.4209 162.597 29.1844C162.939 28.948 163.111 28.6369 163.111 28.2511C163.111 27.6538 162.694 27.2493 161.86 27.0378L160.012 26.5898C159.427 26.4404 158.873 26.1573 158.351 25.7404C157.828 25.3235 157.567 24.7604 157.567 24.0511C157.567 23.2422 157.924 22.5858 158.64 22.0818C159.355 21.5778 160.205 21.3258 161.188 21.3258C161.997 21.3258 162.718 21.5093 163.353 21.8764C163.988 22.2435 164.442 22.7693 164.716 23.4538L163.223 24.0698C162.887 23.2609 162.19 22.8564 161.132 22.8564C160.622 22.8564 160.192 22.9622 159.844 23.1738C159.495 23.3853 159.321 23.6715 159.321 24.0324C159.321 24.5551 159.726 24.9098 160.535 25.0964L162.345 25.5258C163.204 25.7249 163.838 26.0671 164.249 26.5524C164.66 27.0378 164.865 27.5853 164.865 28.1951C164.865 29.0164 164.529 29.7009 163.857 30.2484C163.185 30.796 162.32 31.0698 161.262 31.0698ZM170.004 30.9204C169.046 30.9204 168.314 30.6653 167.81 30.1551C167.306 29.6449 167.054 28.9231 167.054 27.9898V23.1924H165.449V21.6244H167.054V18.8244H168.772V21.6244H171.012V23.1924H168.772V27.8591C168.772 28.8547 169.182 29.3524 170.004 29.3524C170.315 29.3524 170.576 29.3027 170.788 29.2031L171.385 30.6778C171.012 30.8395 170.551 30.9204 170.004 30.9204ZM176.02 31.0698C174.999 31.0698 174.156 30.8209 173.49 30.3231C172.825 29.8253 172.336 29.2031 172.025 28.4564L173.556 27.8218C174.041 28.9667 174.869 29.5391 176.038 29.5391C176.573 29.5391 177.012 29.4209 177.354 29.1844C177.697 28.948 177.868 28.6369 177.868 28.2511C177.868 27.6538 177.451 27.2493 176.617 27.0378L174.769 26.5898C174.184 26.4404 173.63 26.1573 173.108 25.7404C172.585 25.3235 172.324 24.7604 172.324 24.0511C172.324 23.2422 172.681 22.5858 173.397 22.0818C174.113 21.5778 174.962 21.3258 175.945 21.3258C176.754 21.3258 177.476 21.5093 178.11 21.8764C178.745 22.2435 179.199 22.7693 179.473 23.4538L177.98 24.0698C177.644 23.2609 176.947 22.8564 175.889 22.8564C175.379 22.8564 174.949 22.9622 174.601 23.1738C174.253 23.3853 174.078 23.6715 174.078 24.0324C174.078 24.5551 174.483 24.9098 175.292 25.0964L177.102 25.5258C177.961 25.7249 178.596 26.0671 179.006 26.5524C179.417 27.0378 179.622 27.5853 179.622 28.1951C179.622 29.0164 179.286 29.7009 178.614 30.2484C177.942 30.796 177.077 31.0698 176.02 31.0698Z" fill="#0A0A0B"/>
<path d="M43.9375 23.4062C43.9375 19.1771 47.4812 15.75 51.7104 15.75C54.0437 15.75 55.7062 16.6688 56.9604 17.8646L55.4729 19.3375C54.5833 18.4917 53.3729 17.8354 51.7104 17.8354C48.6333 17.8354 46.2271 20.3146 46.2271 23.3917C46.2271 26.4687 48.6333 28.9479 51.7104 28.9479C53.7083 28.9479 54.8458 28.1458 55.575 27.4167C56.1729 26.8188 56.5667 25.9583 56.7125 24.7917H51.7104V22.7062H58.7542C58.8271 23.0854 58.8708 23.5229 58.8708 24.0187C58.8708 25.5937 58.4479 27.5333 57.0625 28.9042C55.7062 30.3042 53.9854 31.0479 51.7104 31.0479C47.4812 31.0479 43.9375 27.6208 43.9375 23.4062ZM64.4854 21.2917C67.2125 21.2917 69.4292 23.3625 69.4292 26.2208C69.4292 29.0646 67.2125 31.15 64.4854 31.15C61.7583 31.15 59.5417 29.0646 59.5417 26.2208C59.5417 23.3625 61.7583 21.2917 64.4854 21.2917ZM64.4854 29.1958C65.9729 29.1958 67.2708 27.9708 67.2708 26.2062C67.2708 24.4271 65.9729 23.2167 64.4854 23.2167C62.9833 23.2167 61.7 24.4271 61.7 26.2062C61.7 27.9708 62.9979 29.1958 64.4854 29.1958ZM75.2771 21.2917C78.0042 21.2917 80.2208 23.3625 80.2208 26.2208C80.2208 29.0646 78.0042 31.15 75.2771 31.15C72.55 31.15 70.3333 29.0646 70.3333 26.2208C70.3333 23.3625 72.55 21.2917 75.2771 21.2917ZM75.2771 29.1958C76.7646 29.1958 78.0625 27.9708 78.0625 26.2062C78.0625 24.4271 76.7792 23.2167 75.2771 23.2167C73.775 23.2167 72.4917 24.4271 72.4917 26.2062C72.4917 27.9708 73.7896 29.1958 75.2771 29.1958ZM88.5188 21.4521H90.5896V30.3042C90.5896 33.95 88.4458 35.4375 85.9083 35.4375C83.5167 35.4375 82.0729 33.8333 81.5333 32.5208L83.4146 31.7333C83.75 32.5354 84.5667 33.4833 85.8938 33.4833C87.5125 33.4833 88.5188 32.4771 88.5188 30.5958V29.8813H88.4458C87.9646 30.4792 87.0313 31.0042 85.85 31.0042C83.3854 31.0042 81.125 28.8458 81.125 26.0896C81.125 23.3042 83.3854 21.1458 85.85 21.1458C87.0313 21.1458 87.9646 21.6708 88.4458 22.2542H88.5188V21.4521ZM86.0396 29.0646C87.5125 29.0646 88.6792 27.825 88.6646 26.0896C88.6646 24.3542 87.5125 23.0854 86.0396 23.0854C84.5521 23.0854 83.2979 24.3542 83.2979 26.0896C83.2979 27.8104 84.5521 29.0646 86.0396 29.0646ZM92.0625 30.8146V16.3333H94.2208V30.8146H92.0625ZM100.156 29.1958C101.265 29.1958 102.023 28.6563 102.592 27.8396L104.269 28.9625C103.715 29.7646 102.417 31.15 100.156 31.15C97.3562 31.15 95.2708 28.9771 95.2708 26.2208C95.2708 23.2896 97.3854 21.2917 99.9229 21.2917C102.475 21.2917 103.729 23.3188 104.137 24.4271L104.356 24.9813L97.7646 27.7083C98.275 28.6854 99.0479 29.1958 100.156 29.1958ZM99.9958 23.1875C98.8875 23.1875 97.3562 24.1646 97.4146 26.0604L101.819 24.2375C101.585 23.6104 100.856 23.1875 99.9958 23.1875Z" fill="#0A0A0B"/>
<path fill-rule="evenodd" clip-rule="evenodd" d="M45.8865 9.48608H50.4348V10.521H44.6143V0.92334H45.8865V9.48608ZM53.3497 10.521H52.1302V3.38867H53.3497V10.521ZM52.0313 1.49683C52.0313 1.29907 52.0918 1.13208 52.2126 0.99585C52.3335 0.859618 52.5125 0.791504 52.7499 0.791504C52.9872 0.791504 53.1673 0.859618 53.2904 0.99585C53.4134 1.13208 53.4749 1.29907 53.4749 1.49683C53.4749 1.69458 53.4134 1.85937 53.2904 1.99121C53.1673 2.12305 52.9872 2.18896 52.7499 2.18896C52.5125 2.18896 52.3335 2.12305 52.2126 1.99121C52.0918 1.85937 52.0313 1.69458 52.0313 1.49683ZM59.7912 8.62915C59.7912 8.29956 59.6671 8.04358 59.4188 7.86121C59.1705 7.67883 58.7376 7.52173 58.1202 7.38989C57.5028 7.25806 57.0128 7.09985 56.6502 6.91528C56.2877 6.73071 56.0196 6.51099 55.846 6.2561C55.6724 6.00122 55.5856 5.698 55.5856 5.34644C55.5856 4.76196 55.8328 4.26758 56.3272 3.86328C56.8216 3.45898 57.4533 3.25684 58.2224 3.25684C59.031 3.25684 59.6868 3.46557 60.19 3.88306C60.6932 4.30054 60.9448 4.83447 60.9448 5.48486H59.7187C59.7187 5.15088 59.577 4.86304 59.2935 4.62134C59.0101 4.37964 58.653 4.25879 58.2224 4.25879C57.7785 4.25879 57.4314 4.35547 57.1809 4.54883C56.9304 4.74219 56.8051 4.99487 56.8051 5.30688C56.8051 5.60132 56.9216 5.82324 57.1545 5.97266C57.3874 6.12207 57.8082 6.26489 58.4168 6.40112C59.0255 6.53735 59.5187 6.69995 59.8967 6.88892C60.2746 7.07788 60.5548 7.3053 60.7371 7.57117C60.9195 7.83704 61.0107 8.16113 61.0107 8.54346C61.0107 9.18067 60.7558 9.69153 60.246 10.076C59.7363 10.4606 59.0749 10.6528 58.2619 10.6528C57.6906 10.6528 57.1853 10.5518 56.7458 10.3496C56.3063 10.1475 55.9625 9.86511 55.7142 9.50256C55.4659 9.14001 55.3417 8.7478 55.3417 8.32593H56.5612C56.5832 8.73462 56.7469 9.05871 57.0523 9.29822C57.3577 9.53772 57.7609 9.65747 58.2619 9.65747C58.7233 9.65747 59.0936 9.56409 59.3726 9.37732C59.6517 9.19055 59.7912 8.94116 59.7912 8.62915ZM64.5914 1.66162V3.38867H65.9229V4.3313H64.5914V8.75439C64.5914 9.04004 64.6507 9.25427 64.7693 9.39709C64.888 9.53992 65.0901 9.61133 65.3758 9.61133C65.5164 9.61133 65.7098 9.58496 65.9559 9.53223V10.521C65.6351 10.6089 65.323 10.6528 65.0198 10.6528C64.4749 10.6528 64.064 10.488 63.7872 10.1584C63.5103 9.82886 63.3719 9.36084 63.3719 8.75439V4.3313H62.0733V3.38867H63.3719V1.66162H64.5914ZM70.6439 10.6528C69.6771 10.6528 68.8905 10.3353 68.2841 9.70032C67.6776 9.0653 67.3744 8.21607 67.3744 7.15259V6.92847C67.3744 6.22094 67.5095 5.58924 67.7798 5.03333C68.0501 4.47741 68.428 4.04236 68.9136 3.72815C69.3992 3.41394 69.9254 3.25684 70.4923 3.25684C71.4196 3.25684 72.1403 3.56225 72.6544 4.1731C73.1686 4.78394 73.4257 5.65844 73.4257 6.79663V7.3042H68.5939C68.6115 8.00733 68.8169 8.57532 69.2102 9.00818C69.6035 9.44104 70.1034 9.65747 70.7099 9.65747C71.1405 9.65747 71.5053 9.56958 71.8041 9.3938C72.1029 9.21802 72.3644 8.98511 72.5885 8.69507L73.3334 9.27515C72.7357 10.1936 71.8393 10.6528 70.6439 10.6528ZM70.4923 4.25879C70.0001 4.25879 69.5871 4.43786 69.2531 4.79602C68.9191 5.15418 68.7126 5.65625 68.6334 6.30225H72.2062V6.20996C72.171 5.59033 72.0041 5.11023 71.7052 4.76965C71.4064 4.42908 71.0021 4.25879 70.4923 4.25879ZM76.3274 3.38867L76.3669 4.28516C76.9119 3.59961 77.6238 3.25684 78.5027 3.25684C80.01 3.25684 80.7703 4.10717 80.7834 5.80786V10.521H79.564V5.80127C79.5596 5.28711 79.442 4.90698 79.2113 4.66089C78.9806 4.41479 78.6213 4.29175 78.1335 4.29175C77.738 4.29175 77.3909 4.39722 77.092 4.60815C76.7932 4.81909 76.5603 5.09595 76.3933 5.43872V10.521H75.1738V3.38867H76.3274ZM86.3166 6.88892C86.3166 6.19018 86.4539 5.56177 86.7286 5.00366C87.0032 4.44555 87.3856 4.01489 87.8756 3.71167C88.3655 3.40845 88.9247 3.25684 89.5532 3.25684C90.5244 3.25684 91.3099 3.59301 91.9097 4.26538C92.5096 4.93775 92.8095 5.83203 92.8095 6.94824V7.03394C92.8095 7.72827 92.6766 8.35119 92.4107 8.90271C92.1448 9.45423 91.7647 9.88379 91.2703 10.1914C90.7759 10.499 90.208 10.6528 89.5664 10.6528C88.5996 10.6528 87.8162 10.3167 87.2164 9.64429C86.6165 8.97192 86.3166 8.08204 86.3166 6.97461V6.88892ZM87.5427 7.03394C87.5427 7.82496 87.7261 8.45996 88.0931 8.93896C88.46 9.41797 88.9511 9.65747 89.5664 9.65747C90.186 9.65747 90.6782 9.41468 91.0429 8.92908C91.4077 8.44348 91.59 7.76343 91.59 6.88892C91.59 6.10669 91.4044 5.47278 91.033 4.98718C90.6617 4.50158 90.1684 4.25879 89.5532 4.25879C88.9511 4.25879 88.4655 4.49829 88.0964 4.97729C87.7272 5.4563 87.5427 6.14184 87.5427 7.03394ZM95.8299 3.38867L95.8694 4.28516C96.4144 3.59961 97.1263 3.25684 98.0052 3.25684C99.5125 3.25684 100.273 4.10717 100.286 5.80786V10.521H99.0665V5.80127C99.0621 5.28711 98.9445 4.90698 98.7138 4.66089C98.4831 4.41479 98.1238 4.29175 97.636 4.29175C97.2405 4.29175 96.8934 4.39722 96.5945 4.60815C96.2957 4.81909 96.0628 5.09595 95.8958 5.43872V10.521H94.6763V3.38867H95.8299Z" fill="#747577"/>
</svg>
