<svg width="40" height="40" viewBox="0 0 40 40" fill="none" xmlns="http://www.w3.org/2000/svg">
<path d="M39.1422 34.5967C38.5764 35.9428 37.6802 37.1245 36.5365 38.0322C35.7005 38.6893 34.7493 39.1846 33.7317 39.4927C32.1514 39.8744 30.527 40.0418 28.902 39.9906H10.9943C9.37481 40.043 7.75572 39.8755 6.18126 39.4927C5.15134 39.1899 4.18828 38.6943 3.34323 38.0322C2.23304 37.1511 1.35552 36.0114 0.787352 34.7129C0.174783 32.8522 -0.084156 30.8933 0.0239071 28.9373V28.9373V10.9797C-0.0643754 9.06141 0.200014 7.14318 0.803948 5.32028C1.36276 4.01151 2.23478 2.86021 3.34323 1.96776C4.18331 1.30754 5.14058 0.812011 6.16466 0.507252C7.73912 0.124506 9.35821 -0.0429853 10.9777 0.00935371H28.9518C30.5767 -0.041845 32.2012 0.12562 33.7815 0.507252C34.7816 0.821035 35.7155 1.31611 36.5365 1.96776C37.6467 2.84893 38.5242 3.98856 39.0924 5.28708C39.6947 7.12155 39.9535 9.05138 39.8558 10.9797V28.9373C39.9655 30.8515 39.7236 32.7697 39.1422 34.5967V34.5967Z" fill="url(#paint0_linear)"/>
<path d="M22.8609 22.9459C22.4687 22.5851 22.0081 22.3066 21.5064 22.127C21.0046 21.9474 20.472 21.8703 19.9399 21.9003C19.4133 21.8748 18.8869 21.9541 18.3912 22.1336C17.8954 22.313 17.4403 22.5892 17.0521 22.9459C16.7433 23.2515 16.5548 23.6579 16.521 24.091C16.4162 25.0952 16.4162 26.1075 16.521 27.1116C16.6206 28.3398 16.8197 29.9663 17.0853 31.6259C17.1895 32.3933 17.3447 33.1529 17.55 33.8997C17.7342 34.3522 18.0603 34.7328 18.4793 34.9842C18.8982 35.2356 19.3875 35.3442 19.8735 35.2938C20.3618 35.3452 20.8536 35.2372 21.2754 34.9859C21.6972 34.7346 22.0264 34.3535 22.2136 33.8997C22.4189 33.1529 22.5741 32.3933 22.6783 31.6259C22.9273 29.9663 23.1264 28.3066 23.226 27.1116C23.3308 26.1075 23.3308 25.0952 23.226 24.091C23.2384 23.6789 23.1096 23.2748 22.8609 22.9459V22.9459ZM16.7201 17.3196C16.7201 17.9761 16.9148 18.6179 17.2795 19.1637C17.6443 19.7096 18.1627 20.135 18.7692 20.3863C19.3757 20.6375 20.0431 20.7032 20.687 20.5752C21.3309 20.4471 21.9224 20.131 22.3866 19.6667C22.8508 19.2025 23.1669 18.6111 23.295 17.9672C23.4231 17.3233 23.3574 16.6559 23.1061 16.0494C22.8549 15.4428 22.4294 14.9244 21.8836 14.5597C21.3377 14.195 20.696 14.0003 20.0395 14.0003C19.1591 14.0003 18.3148 14.35 17.6923 14.9725C17.0699 15.595 16.7201 16.4393 16.7201 17.3196ZM19.9399 4.42404C16.6316 4.43924 13.435 5.62212 10.9137 7.76407C8.39244 9.90603 6.70848 12.8695 6.15881 16.1318C5.60914 19.3941 6.22907 22.7457 7.90926 25.5956C9.58946 28.4454 12.222 30.6105 15.3426 31.7089C15.374 31.7172 15.407 31.7178 15.4386 31.7105C15.4703 31.7032 15.4997 31.6882 15.5242 31.6669C15.5488 31.6457 15.5677 31.6187 15.5795 31.5884C15.5912 31.5581 15.5954 31.5254 15.5916 31.4931C15.5086 31.0118 15.4422 30.5305 15.3758 30.0658C15.3692 29.9822 15.3393 29.902 15.2894 29.8345C15.2396 29.7671 15.1717 29.7149 15.0937 29.6841C12.5229 28.5429 10.4232 26.5517 9.14737 24.0451C7.87153 21.5384 7.4973 18.669 8.08754 15.9189C8.67777 13.1689 10.1965 10.7057 12.3886 8.94338C14.5807 7.18102 17.3126 6.22681 20.1252 6.24106C22.9378 6.25531 25.6599 7.23716 27.834 9.02165C30.0081 10.8061 31.5018 13.2845 32.0642 16.0404C32.6265 18.7963 32.2232 21.6618 30.922 24.1554C29.6209 26.649 27.5011 28.6188 24.9189 29.7339C24.8408 29.7647 24.773 29.8168 24.7231 29.8843C24.6732 29.9518 24.6433 30.032 24.6367 30.1156C24.6367 30.5803 24.504 31.0616 24.421 31.5429C24.4172 31.5752 24.4213 31.6079 24.4331 31.6382C24.4448 31.6685 24.4638 31.6954 24.4883 31.7167C24.5129 31.738 24.5423 31.7529 24.5739 31.7603C24.6056 31.7676 24.6385 31.767 24.6699 31.7587C27.8383 30.6831 30.5185 28.5115 32.2275 25.6349C33.9366 22.7584 34.5622 19.366 33.9917 16.0691C33.4212 12.7721 31.6921 9.78723 29.1158 7.65222C26.5395 5.51721 23.2855 4.3724 19.9399 4.42404V4.42404ZM19.6909 10.8635C21.2399 10.8026 22.7705 11.2168 24.0775 12.0505C25.3844 12.8841 26.4052 14.0975 27.003 15.5278C27.6008 16.9581 27.7469 18.537 27.4219 20.0528C27.0968 21.5685 26.3161 22.9486 25.1844 24.0081C25.1247 24.0696 25.0779 24.1423 25.0465 24.2221C25.0152 24.3019 25 24.3871 25.0019 24.4728C25.0376 25.0254 25.0376 25.5798 25.0019 26.1324C25.003 26.1668 25.013 26.2004 25.0309 26.2297C25.0489 26.2591 25.0741 26.2834 25.1042 26.3001C25.1343 26.3168 25.1682 26.3254 25.2026 26.3251C25.237 26.3248 25.2708 26.3156 25.3006 26.2984C26.964 25.1664 28.2207 23.5311 28.8865 21.6324C29.5522 19.7338 29.5919 17.6717 28.9997 15.7488C28.4075 13.826 27.2145 12.1435 25.5959 10.9484C23.9773 9.75328 22.0183 9.10841 20.0063 9.10841C17.9943 9.10841 16.0352 9.75328 14.4166 10.9484C12.798 12.1435 11.6051 13.826 11.0129 15.7488C10.4206 17.6717 10.4603 19.7338 11.1261 21.6324C11.7918 23.5311 13.0486 25.1664 14.7119 26.2984C14.7404 26.3171 14.7736 26.3274 14.8076 26.3282C14.8416 26.329 14.8752 26.3203 14.9046 26.3031C14.9339 26.2858 14.9579 26.2607 14.9737 26.2305C14.9895 26.2004 14.9966 26.1664 14.9941 26.1324C14.9941 25.5681 14.9941 25.0537 14.9941 24.4728C15.0027 24.3864 14.9906 24.2992 14.9588 24.2184C14.9271 24.1376 14.8766 24.0655 14.8115 24.0081C13.7208 22.9751 12.9598 21.6427 12.6243 20.1784C12.2888 18.7141 12.3937 17.1833 12.9258 15.7785C13.4579 14.3737 14.3936 13.1576 15.615 12.283C16.8364 11.4085 18.2892 10.9146 19.7905 10.8635H19.6909Z" fill="white"/>
<defs>
<linearGradient id="paint0_linear" x1="19.9731" y1="0.0093537" x2="19.9731" y2="39.9077" gradientUnits="userSpaceOnUse">
<stop stop-color="#F452FF"/>
<stop offset="1" stop-color="#832BC1"/>
</linearGradient>
</defs>
</svg>
