<svg width="40" height="40" viewBox="0 0 40 40" fill="none" xmlns="http://www.w3.org/2000/svg">
<path d="M17.5 12.7271V18.7884V21.2111V27.2725H22.5V21.2111V18.7884V12.7271H17.5Z" fill="#FAB908"/>
<path d="M2.5 21.1362C3.88071 21.1362 5 20.0169 5 18.6362C5 17.2555 3.88071 16.1362 2.5 16.1362C1.11929 16.1362 0 17.2555 0 18.6362C0 20.0169 1.11929 21.1362 2.5 21.1362Z" fill="#0066D9"/>
<path d="M2.5 23.8638C3.88071 23.8638 5 22.7445 5 21.3638C5 19.9831 3.88071 18.8638 2.5 18.8638C1.11929 18.8638 0 19.9831 0 21.3638C0 22.7445 1.11929 23.8638 2.5 23.8638Z" fill="#0066D9"/>
<path d="M5 18.6362H0V21.3635H5V18.6362Z" fill="#0066D9"/>
<path d="M37.5 23.8638C38.8807 23.8638 40 22.7445 40 21.3638C40 19.9831 38.8807 18.8638 37.5 18.8638C36.1193 18.8638 35 19.9831 35 21.3638C35 22.7445 36.1193 23.8638 37.5 23.8638Z" fill="#4285F4"/>
<path d="M37.5 21.1362C38.8807 21.1362 40 20.0169 40 18.6362C40 17.2555 38.8807 16.1362 37.5 16.1362C36.1193 16.1362 35 17.2555 35 18.6362C35 20.0169 36.1193 21.1362 37.5 21.1362Z" fill="#4285F4"/>
<path d="M35 21.3638H40V18.6365H35V21.3638Z" fill="#4285F4"/>
<path d="M11.1365 29.3184C12.5172 29.3184 13.6365 28.1991 13.6365 26.8184C13.6365 25.4376 12.5172 24.3184 11.1365 24.3184C9.75576 24.3184 8.63647 25.4376 8.63647 26.8184C8.63647 28.1991 9.75576 29.3184 11.1365 29.3184Z" fill="#EA4335"/>
<path d="M11.1365 32.0454C12.5172 32.0454 13.6365 30.9261 13.6365 29.5454C13.6365 28.1647 12.5172 27.0454 11.1365 27.0454C9.75576 27.0454 8.63647 28.1647 8.63647 29.5454C8.63647 30.9261 9.75576 32.0454 11.1365 32.0454Z" fill="#EA4335"/>
<path d="M13.6365 26.8184H8.63647V29.5456H13.6365V26.8184Z" fill="#EA4335"/>
<path d="M11.1365 12.9546C12.5172 12.9546 13.6365 11.8353 13.6365 10.4546C13.6365 9.07388 12.5172 7.95459 11.1365 7.95459C9.75576 7.95459 8.63647 9.07388 8.63647 10.4546C8.63647 11.8353 9.75576 12.9546 11.1365 12.9546Z" fill="#EA4335"/>
<path d="M11.1365 21.8184C12.5172 21.8184 13.6365 20.6991 13.6365 19.3184C13.6365 17.9376 12.5172 16.8184 11.1365 16.8184C9.75576 16.8184 8.63647 17.9376 8.63647 19.3184C8.63647 20.6991 9.75576 21.8184 11.1365 21.8184Z" fill="#EA4335"/>
<path d="M13.6365 10.4546H8.63647V19.375H13.6365V10.4546Z" fill="#EA4335"/>
<path d="M28.8635 15.6816C30.2442 15.6816 31.3635 14.5624 31.3635 13.1816C31.3635 11.8009 30.2442 10.6816 28.8635 10.6816C27.4828 10.6816 26.3635 11.8009 26.3635 13.1816C26.3635 14.5624 27.4828 15.6816 28.8635 15.6816Z" fill="#34A853"/>
<path d="M28.8635 12.9546C30.2442 12.9546 31.3635 11.8353 31.3635 10.4546C31.3635 9.07388 30.2442 7.95459 28.8635 7.95459C27.4828 7.95459 26.3635 9.07388 26.3635 10.4546C26.3635 11.8353 27.4828 12.9546 28.8635 12.9546Z" fill="#34A853"/>
<path d="M26.3635 13.1816H31.3635V10.4544H26.3635V13.1816Z" fill="#34A853"/>
<path d="M20 7.72705C21.3807 7.72705 22.5 6.60776 22.5 5.22705C22.5 3.84634 21.3807 2.72705 20 2.72705C18.6193 2.72705 17.5 3.84634 17.5 5.22705C17.5 6.60776 18.6193 7.72705 20 7.72705Z" fill="#FAB908"/>
<path d="M20 5C21.3807 5 22.5 3.88071 22.5 2.5C22.5 1.11929 21.3807 0 20 0C18.6193 0 17.5 1.11929 17.5 2.5C17.5 3.88071 18.6193 5 20 5Z" fill="#FAB908"/>
<path d="M17.5 5.22705L22.5 5.22705V2.49978L17.5 2.49978V5.22705Z" fill="#FAB908"/>
<path d="M20 40C21.3807 40 22.5 38.8807 22.5 37.5C22.5 36.1193 21.3807 35 20 35C18.6193 35 17.5 36.1193 17.5 37.5C17.5 38.8807 18.6193 40 20 40Z" fill="#FAB908"/>
<path d="M20 37.2729C21.3807 37.2729 22.5 36.1537 22.5 34.7729C22.5 33.3922 21.3807 32.2729 20 32.2729C18.6193 32.2729 17.5 33.3922 17.5 34.7729C17.5 36.1537 18.6193 37.2729 20 37.2729Z" fill="#FAB908"/>
<path d="M17.5 37.5H22.5V34.7727H17.5V37.5Z" fill="#FAB908"/>
<path d="M28.8635 32.0454C30.2442 32.0454 31.3635 30.9261 31.3635 29.5454C31.3635 28.1647 30.2442 27.0454 28.8635 27.0454C27.4828 27.0454 26.3635 28.1647 26.3635 29.5454C26.3635 30.9261 27.4828 32.0454 28.8635 32.0454Z" fill="#34A853"/>
<path d="M28.8635 23.1816C30.2442 23.1816 31.3635 22.0624 31.3635 20.6816C31.3635 19.3009 30.2442 18.1816 28.8635 18.1816C27.4828 18.1816 26.3635 19.3009 26.3635 20.6816C26.3635 22.0624 27.4828 23.1816 28.8635 23.1816Z" fill="#34A853"/>
<path d="M26.3635 29.5454H31.3635V20.6818H26.3635V29.5454Z" fill="#34A853"/>
<path d="M20 15.2271C21.3807 15.2271 22.5 14.1078 22.5 12.7271C22.5 11.3463 21.3807 10.2271 20 10.2271C18.6193 10.2271 17.5 11.3463 17.5 12.7271C17.5 14.1078 18.6193 15.2271 20 15.2271Z" fill="#FAB908"/>
<path d="M20 29.7729C21.3807 29.7729 22.5 28.6537 22.5 27.2729C22.5 25.8922 21.3807 24.7729 20 24.7729C18.6193 24.7729 17.5 25.8922 17.5 27.2729C17.5 28.6537 18.6193 29.7729 20 29.7729Z" fill="#FAB908"/>
</svg>
