<svg width="40" height="40" viewBox="0 0 40 40" fill="none" xmlns="http://www.w3.org/2000/svg">
<path d="M20 0C16.0444 0 12.1776 1.17298 8.8886 3.37061C5.59962 5.56823 3.03617 8.69181 1.52242 12.3463C0.00866555 16.0008 -0.387401 20.0222 0.384303 23.9018C1.15601 27.7814 3.06082 31.3451 5.85787 34.1421C8.65492 36.9392 12.2186 38.844 16.0982 39.6157C19.9778 40.3874 23.9991 39.9913 27.6537 38.4776C31.3082 36.9638 34.4318 34.4004 36.6294 31.1114C38.827 27.8224 40 23.9556 40 20C40 14.6957 37.8929 9.60859 34.1421 5.85786C30.3914 2.10714 25.3043 0 20 0V0ZM29.178 28.8428C29.0929 28.9841 28.9805 29.1071 28.8474 29.2046C28.7144 29.3021 28.5632 29.3723 28.4029 29.4109C28.2425 29.4495 28.076 29.4558 27.9131 29.4296C27.7502 29.4033 27.5942 29.3449 27.4541 29.2578C22.7614 26.3847 16.8556 25.7462 9.89626 27.3264C9.73795 27.3642 9.57371 27.3702 9.41308 27.344C9.25245 27.3178 9.09863 27.2599 8.96053 27.1738C8.82243 27.0877 8.70281 26.975 8.60862 26.8423C8.51443 26.7095 8.44753 26.5594 8.41182 26.4006C8.37386 26.2413 8.36772 26.0761 8.39373 25.9144C8.41973 25.7527 8.47739 25.5977 8.56339 25.4583C8.64938 25.319 8.76204 25.1979 8.89489 25.1022C9.02774 25.0064 9.17818 24.9378 9.3376 24.9002C16.9513 23.1604 23.4956 23.9106 28.763 27.1349C29.044 27.3067 29.2455 27.583 29.3233 27.9031C29.4011 28.2232 29.3488 28.5611 29.178 28.8428V28.8428ZM31.6201 23.3998C31.397 23.7429 31.0507 23.9872 30.6527 24.0823C30.2546 24.1774 29.8353 24.1159 29.4812 23.9106C23.4122 20.5252 16.2476 19.687 9.56106 21.5802C9.35299 21.6962 9.1216 21.7641 8.88385 21.7791C8.64611 21.794 8.40804 21.7555 8.1871 21.6664C7.96616 21.5774 7.76796 21.44 7.60703 21.2643C7.44611 21.0887 7.32653 20.8793 7.25707 20.6514C7.18762 20.4235 7.17005 20.183 7.20564 19.9475C7.24124 19.7119 7.32911 19.4874 7.4628 19.2902C7.59649 19.093 7.77262 18.9283 7.97826 18.8081C8.18391 18.6878 8.41385 18.6152 8.65124 18.5954C12.3834 17.521 16.2927 17.2033 20.1494 17.6611C24.0061 18.1189 27.7323 19.3428 31.1093 21.261C31.4524 21.484 31.6967 21.8304 31.7918 22.2284C31.8869 22.6265 31.8254 23.0458 31.6201 23.3998V23.3998ZM31.8276 17.7334C25.4429 13.9026 14.7646 13.5515 8.60336 15.419C8.12923 15.5629 7.61734 15.5126 7.1803 15.2791C6.74327 15.0456 6.41688 14.6481 6.27295 14.174C6.12902 13.6998 6.17933 13.188 6.41282 12.7509C6.6463 12.3139 7.04383 11.9875 7.51796 11.8436C14.589 9.70471 26.3208 10.1197 33.743 14.5092C34.1246 14.7822 34.3894 15.189 34.4848 15.6484C34.5801 16.1078 34.499 16.5863 34.2576 16.9887C34.0162 17.3911 33.6321 17.6878 33.1819 17.8199C32.7316 17.952 32.2481 17.9097 31.8276 17.7015V17.7334Z" fill="#1ED760"/>
</svg>
