<svg width="129" height="37" viewBox="0 0 129 37" fill="none" xmlns="http://www.w3.org/2000/svg">
<path d="M17.5786 0.0209961C14.1019 0.0209961 10.7032 1.05196 7.81246 2.98352C4.92167 4.91508 2.66858 7.66049 1.3381 10.8726C0.00761641 14.0846 -0.340498 17.6191 0.337776 21.029C1.01605 24.4389 2.69025 27.5711 5.14866 30.0295C7.60707 32.488 10.7393 34.1621 14.1492 34.8404C17.5591 35.5187 21.0936 35.1706 24.3056 33.8401C27.5177 32.5096 30.2631 30.2565 32.1947 27.3657C34.1262 24.475 35.1572 21.0763 35.1572 17.5996C35.1572 12.9375 33.3052 8.46627 30.0085 5.16965C26.7119 1.87302 22.2407 0.0209961 17.5786 0.0209961V0.0209961ZM25.6454 25.3718C25.5706 25.496 25.4718 25.6041 25.3549 25.6898C25.2379 25.7755 25.1051 25.8372 24.9641 25.8711C24.8231 25.905 24.6768 25.9106 24.5337 25.8875C24.3905 25.8644 24.2534 25.8131 24.1302 25.7365C20.0057 23.2113 14.8149 22.6501 8.69812 24.039C8.55898 24.0722 8.41463 24.0775 8.27344 24.0544C8.13226 24.0314 7.99706 23.9806 7.87568 23.9049C7.7543 23.8292 7.64916 23.7301 7.56637 23.6135C7.48358 23.4968 7.42479 23.3649 7.3934 23.2253C7.36004 23.0853 7.35464 22.94 7.3775 22.7979C7.40036 22.6558 7.45103 22.5196 7.52662 22.3971C7.6022 22.2746 7.70122 22.1682 7.81799 22.084C7.93475 21.9999 8.06698 21.9396 8.20709 21.9066C14.899 20.3774 20.651 21.0367 25.2806 23.8706C25.5277 24.0217 25.7048 24.2645 25.7731 24.5459C25.8415 24.8272 25.7956 25.1242 25.6454 25.3718V25.3718ZM27.7919 20.5878C27.5958 20.8894 27.2914 21.1041 26.9416 21.1877C26.5917 21.2712 26.2231 21.2172 25.912 21.0367C20.5777 18.0612 14.2805 17.3245 8.4035 18.9885C8.22062 19.0904 8.01725 19.1501 7.80829 19.1633C7.59932 19.1764 7.39008 19.1425 7.19589 19.0643C7.0017 18.986 6.8275 18.8652 6.68605 18.7109C6.54461 18.5565 6.43951 18.3724 6.37846 18.1721C6.31741 17.9719 6.30197 17.7605 6.33326 17.5534C6.36455 17.3464 6.44177 17.149 6.55928 16.9757C6.67678 16.8024 6.83159 16.6577 7.01233 16.552C7.19308 16.4463 7.39519 16.3824 7.60384 16.365C10.8842 15.4207 14.3201 15.1415 17.7099 15.5439C21.0996 15.9462 24.3748 17.0219 27.3429 18.7079C27.6445 18.904 27.8592 19.2084 27.9428 19.5582C28.0263 19.9081 27.9723 20.2766 27.7919 20.5878V20.5878ZM27.9742 15.6074C22.3626 12.2404 12.977 11.9318 7.56175 13.5732C7.14502 13.6997 6.69511 13.6555 6.31099 13.4503C5.92686 13.2451 5.63999 12.8957 5.51349 12.4789C5.38698 12.0622 5.4312 11.6123 5.63642 11.2282C5.84163 10.844 6.19104 10.5572 6.60776 10.4307C12.8227 8.55075 23.1342 8.91551 29.6578 12.7735C29.9931 13.0136 30.2259 13.371 30.3097 13.7748C30.3935 14.1787 30.3222 14.5992 30.11 14.9529C29.8978 15.3065 29.5603 15.5673 29.1645 15.6834C28.7688 15.7995 28.3439 15.7624 27.9742 15.5794V15.6074Z" fill="#1ED760"/>
<path d="M51.7392 21.4013C48.3722 20.5876 47.769 19.9984 47.769 18.848C47.769 17.6976 48.8212 16.9681 50.3924 16.9681C52.0773 17.0312 53.6944 17.6475 54.994 18.7217C55.02 18.7352 55.0489 18.7423 55.0782 18.7423C55.1075 18.7423 55.1364 18.7352 55.1624 18.7217C55.2176 18.7111 55.2673 18.6813 55.3026 18.6375L56.9581 16.3087C56.9911 16.2667 57.009 16.2148 57.009 16.1614C57.009 16.108 56.9911 16.0561 56.9581 16.0141C55.1327 14.5199 52.8351 13.7242 50.4766 13.7694C46.843 13.7694 44.3037 15.958 44.3037 19.0724C44.3037 22.4254 46.4923 23.6179 50.2802 24.5298C53.5069 25.2734 54.054 25.9327 54.054 27.013C54.054 28.0932 52.9457 29.0051 51.2482 29.0051C49.2415 28.9912 47.3192 28.1961 45.889 26.7885C45.8344 26.7703 45.7753 26.7703 45.7207 26.7885C45.6627 26.8024 45.6095 26.8315 45.5664 26.8727L43.6865 29.0472C43.647 29.0889 43.625 29.1441 43.625 29.2015C43.625 29.2589 43.647 29.3142 43.6865 29.3559C45.7286 31.1852 48.3804 32.1858 51.1219 32.1617C55.0361 32.1617 57.5754 30.0152 57.5754 26.7043C57.5193 23.9406 55.8358 22.3974 51.7392 21.4013Z" fill="#0A0A0B"/>
<path d="M66.3866 18.0768C65.5763 18.0717 64.7756 18.2525 64.046 18.6051C63.3164 18.9577 62.6773 19.4729 62.1778 20.111V18.5678C62.1743 18.5107 62.1491 18.4572 62.1073 18.4181C62.0656 18.3789 62.0106 18.3572 61.9534 18.3573H58.909C58.8519 18.3572 58.7968 18.3789 58.7551 18.4181C58.7134 18.4572 58.6881 18.5107 58.6846 18.5678V35.6834C58.6846 35.7429 58.7082 35.8 58.7503 35.8421C58.7924 35.8842 58.8495 35.9079 58.909 35.9079H61.9253C61.9849 35.9079 62.0419 35.8842 62.084 35.8421C62.1261 35.8 62.1498 35.7429 62.1498 35.6834V30.3102C62.6658 30.9216 63.3108 31.411 64.0386 31.7434C64.7663 32.0757 65.5586 32.2426 66.3585 32.2322C69.5151 32.2322 72.7138 29.8052 72.7138 25.1475C72.7138 20.4898 69.5432 18.0768 66.3866 18.0768ZM69.1924 25.0914C69.2449 25.5931 69.1928 26.1002 69.0394 26.5807C68.8859 27.0612 68.6344 27.5047 68.3009 27.8831C67.9673 28.2615 67.5589 28.5665 67.1014 28.7791C66.6439 28.9916 66.1474 29.1069 65.6431 29.1177C65.1373 29.1021 64.64 28.9842 64.1811 28.7711C63.7222 28.5581 63.3112 28.2542 62.973 27.8779C62.6347 27.5017 62.3762 27.0608 62.213 26.5818C62.0498 26.1029 61.9854 25.5959 62.0235 25.0914C61.9874 24.588 62.0533 24.0825 62.2174 23.6052C62.3815 23.1279 62.6403 22.6887 62.9784 22.314C63.3164 21.9392 63.7267 21.6367 64.1846 21.4244C64.6425 21.2122 65.1386 21.0947 65.6431 21.079C66.1535 21.0878 66.6566 21.2028 67.1202 21.4167C67.5838 21.6307 67.9977 21.9388 68.3356 22.3216C68.6735 22.7044 68.9279 23.1533 69.0827 23.6399C69.2375 24.1264 69.2892 24.6399 69.2345 25.1475L69.1924 25.0914Z" fill="#0A0A0B"/>
<path d="M80.9349 18.0766C79.533 18.1016 78.1699 18.5413 77.0175 19.3401C75.8652 20.1388 74.9752 21.261 74.4598 22.565C73.9444 23.869 73.8268 25.2964 74.1217 26.6672C74.4166 28.038 75.1108 29.2907 76.1168 30.2674C77.1228 31.2442 78.3955 31.9011 79.7744 32.1553C81.1533 32.4096 82.5766 32.2498 83.8648 31.6961C85.153 31.1424 86.2484 30.2197 87.0128 29.0442C87.7772 27.8687 88.1764 26.4932 88.16 25.0912C88.1472 24.1559 87.95 23.2323 87.5798 22.3733C87.2096 21.5143 86.6736 20.7368 86.0025 20.0852C85.3314 19.4336 84.5383 18.9208 83.6688 18.5762C82.7992 18.2315 81.8702 18.0617 80.9349 18.0766V18.0766ZM80.9349 29.2017C80.4167 29.195 79.9051 29.0834 79.4311 28.8739C78.957 28.6643 78.5302 28.361 78.1764 27.9823C77.8225 27.6035 77.5489 27.1572 77.372 26.67C77.1952 26.1828 77.1186 25.6648 77.147 25.1473C77.1145 24.6369 77.1868 24.1252 77.3595 23.6438C77.5322 23.1624 77.8017 22.7215 78.1513 22.3482C78.501 21.9749 78.9233 21.6772 79.3924 21.4733C79.8615 21.2695 80.3674 21.1639 80.8788 21.163C81.3988 21.1662 81.9128 21.2745 82.3899 21.4814C82.867 21.6882 83.2973 21.9894 83.655 22.3668C84.0128 22.7442 84.2905 23.19 84.4716 23.6775C84.6527 24.165 84.7334 24.684 84.7088 25.2034C84.7415 25.718 84.668 26.2339 84.4929 26.7189C84.3177 27.2039 84.0447 27.6477 83.6908 28.0227C83.3368 28.3977 82.9095 28.6959 82.4354 28.8987C81.9613 29.1016 81.4506 29.2047 80.9349 29.2017V29.2017Z" fill="#0A0A0B"/>
<path d="M96.8438 18.3568H93.5188V14.9618C93.5189 14.9046 93.4972 14.8495 93.4581 14.8078C93.419 14.7661 93.3655 14.7409 93.3084 14.7373H90.2921C90.2326 14.7373 90.1755 14.761 90.1334 14.8031C90.0913 14.8451 90.0677 14.9022 90.0677 14.9618V18.3568H88.5806C88.5529 18.3568 88.5256 18.3623 88.5 18.3729C88.4745 18.3834 88.4513 18.3989 88.4318 18.4185C88.4122 18.438 88.3967 18.4612 88.3861 18.4867C88.3756 18.5123 88.3701 18.5396 88.3701 18.5673V21.1627C88.37 21.2199 88.3917 21.2749 88.4308 21.3166C88.4699 21.3584 88.5235 21.3836 88.5806 21.3871H89.9835V28.0931C89.9835 30.8007 91.3864 32.1756 93.9958 32.1756C94.9777 32.2034 95.9484 31.9607 96.8017 31.4741C96.836 31.4579 96.8649 31.432 96.8848 31.3996C96.9048 31.3672 96.9149 31.3298 96.9139 31.2918V28.8226C96.9145 28.7844 96.9058 28.7466 96.8888 28.7124C96.8717 28.6783 96.8466 28.6487 96.8157 28.6262C96.7821 28.605 96.7432 28.5938 96.7035 28.5938C96.6637 28.5938 96.6248 28.605 96.5912 28.6262C96.0434 28.9037 95.4377 29.0479 94.8236 29.0471C93.8555 29.0471 93.4206 28.6122 93.4206 27.6442V21.3871H96.7456C96.8051 21.3871 96.8622 21.3635 96.9043 21.3214C96.9464 21.2793 96.97 21.2222 96.97 21.1627V18.5673C96.9717 18.5237 96.9606 18.4806 96.9382 18.4433C96.9158 18.4059 96.883 18.3759 96.8438 18.3568V18.3568Z" fill="#0A0A0B"/>
<path d="M108.418 18.3714V17.9505C108.418 16.7159 108.881 16.1688 109.933 16.1688C110.518 16.1756 111.097 16.2848 111.645 16.4915C111.675 16.5054 111.709 16.5126 111.743 16.5126C111.777 16.5126 111.81 16.5054 111.841 16.4915C111.868 16.4697 111.89 16.4419 111.905 16.4102C111.919 16.3786 111.926 16.3439 111.925 16.3091V13.7417C111.928 13.6926 111.914 13.644 111.886 13.6034C111.858 13.5629 111.818 13.5326 111.771 13.5173C110.952 13.3018 110.106 13.2073 109.26 13.2367C106.454 13.2367 105.051 14.808 105.051 17.7681V18.4135H103.648C103.592 18.4135 103.539 18.4356 103.499 18.4751C103.46 18.5146 103.438 18.5681 103.438 18.6239V21.2333C103.437 21.2905 103.459 21.3456 103.498 21.3873C103.537 21.429 103.591 21.4542 103.648 21.4578H105.051V31.8114C105.051 31.8672 105.073 31.9207 105.113 31.9602C105.152 31.9996 105.205 32.0218 105.261 32.0218H108.221C108.279 32.0219 108.334 32.0002 108.375 31.9611C108.417 31.922 108.442 31.8684 108.446 31.8114V21.3877H111.252L115.573 31.7272C115.082 32.8215 114.591 33.0319 113.931 33.0319C113.35 33.0161 112.781 32.8571 112.276 32.5689C112.247 32.5553 112.216 32.5481 112.185 32.5481C112.153 32.5481 112.122 32.5553 112.094 32.5689C112.065 32.5771 112.04 32.5914 112.018 32.6108C111.996 32.6302 111.979 32.6542 111.967 32.6812L111.027 34.9118C111.007 34.9625 111.005 35.019 111.023 35.0707C111.041 35.1224 111.078 35.1656 111.126 35.1924C112.107 35.7548 113.222 36.0409 114.352 36.0201C116.569 36.0201 117.803 34.982 118.898 32.1901L124.131 18.666C124.148 18.6336 124.157 18.5975 124.157 18.5608C124.157 18.5241 124.148 18.488 124.131 18.4555C124.109 18.4283 124.081 18.4065 124.049 18.3919C124.018 18.3773 123.983 18.3703 123.948 18.3714H120.721C120.677 18.3742 120.634 18.3886 120.597 18.4133C120.56 18.4379 120.531 18.4718 120.511 18.5117L117.298 27.7008L113.833 18.5117C113.816 18.4698 113.787 18.4341 113.75 18.4091C113.712 18.384 113.668 18.3709 113.623 18.3714H108.418Z" fill="#0A0A0B"/>
<path d="M101.711 18.3569H98.6952C98.5712 18.3569 98.4707 18.4574 98.4707 18.5814V31.7408C98.4707 31.8648 98.5712 31.9653 98.6952 31.9653H101.711C101.835 31.9653 101.936 31.8648 101.936 31.7408V18.5814C101.936 18.4574 101.835 18.3569 101.711 18.3569Z" fill="#0A0A0B"/>
<path d="M100.211 12.3531C99.7804 12.3503 99.3586 12.4755 98.9991 12.7127C98.6397 12.95 98.3588 13.2886 98.192 13.6857C98.0253 14.0828 97.9802 14.5204 98.0625 14.9432C98.1449 15.3659 98.3508 15.7547 98.6544 16.0602C98.9579 16.3657 99.3454 16.5742 99.7676 16.6593C100.19 16.7443 100.628 16.7021 101.026 16.5379C101.424 16.3737 101.764 16.095 102.004 15.7371C102.244 15.3793 102.372 14.9583 102.372 14.5276C102.373 14.2427 102.319 13.9603 102.211 13.6965C102.103 13.4328 101.945 13.1929 101.744 12.9908C101.543 12.7887 101.304 12.6283 101.041 12.5189C100.778 12.4094 100.496 12.3531 100.211 12.3531V12.3531Z" fill="black"/>
<path d="M126.642 22.58C126.363 22.5819 126.087 22.5283 125.829 22.4225C125.571 22.3167 125.337 22.1608 125.14 21.9637C124.943 21.7666 124.787 21.5323 124.681 21.2745C124.575 21.0166 124.522 20.7403 124.523 20.4616C124.523 19.896 124.748 19.3536 125.148 18.9537C125.548 18.5538 126.09 18.3291 126.656 18.3291C126.935 18.3273 127.211 18.3808 127.469 18.4866C127.727 18.5924 127.961 18.7484 128.158 18.9455C128.355 19.1425 128.511 19.3768 128.617 19.6347C128.723 19.8925 128.776 20.1688 128.774 20.4476C128.774 21.0131 128.55 21.5555 128.15 21.9554C127.75 22.3553 127.207 22.58 126.642 22.58V22.58ZM126.642 18.5396C126.261 18.5368 125.887 18.6475 125.569 18.8577C125.251 19.0678 125.002 19.3678 124.855 19.7196C124.708 20.0713 124.668 20.4589 124.742 20.8331C124.816 21.2072 124.999 21.551 125.269 21.8206C125.538 22.0902 125.882 22.2736 126.256 22.3473C126.631 22.421 127.018 22.3818 127.37 22.2345C127.722 22.0873 128.022 21.8388 128.232 21.5206C128.442 21.2024 128.553 20.8289 128.55 20.4476C128.552 20.1977 128.504 19.9499 128.41 19.7185C128.315 19.4871 128.176 19.2766 128 19.0993C127.824 18.9219 127.615 18.7811 127.384 18.6851C127.153 18.589 126.906 18.5396 126.656 18.5396H126.642ZM127.119 20.672L127.708 21.5138H127.203L126.67 20.7422H126.207V21.5138H125.772V19.2831H126.768C127.287 19.2831 127.638 19.5497 127.638 19.9846C127.641 20.1388 127.593 20.2896 127.502 20.4139C127.411 20.5382 127.281 20.6289 127.133 20.672H127.119ZM126.754 19.6619H126.207V20.3634H126.754C127.035 20.3634 127.203 20.2371 127.203 20.0127C127.203 19.7882 127.049 19.6619 126.768 19.6619H126.754Z" fill="#0A0A0B"/>
<path d="M44.7812 9.10539V0.157715H45.9231V8.09984H49.809V9.1906L44.7812 9.10539Z" fill="#747577"/>
<path d="M52.553 1.40166C52.4808 1.48277 52.3911 1.54641 52.2908 1.58774C52.1904 1.62908 52.0819 1.64704 51.9735 1.64026C51.7624 1.63591 51.5612 1.55012 51.4119 1.40083C51.2626 1.25154 51.1768 1.05032 51.1725 0.839234C51.1681 0.731152 51.1872 0.623404 51.2284 0.523381C51.2695 0.423359 51.3319 0.333429 51.4111 0.259765C51.4835 0.18358 51.5708 0.123088 51.6675 0.0820429C51.7643 0.0409974 51.8684 0.0202754 51.9735 0.0211616C52.0813 0.0189461 52.1884 0.0389919 52.2881 0.080047C52.3878 0.121102 52.478 0.182283 52.553 0.259765C52.6289 0.335932 52.689 0.426316 52.73 0.525746C52.7709 0.625177 52.7919 0.731704 52.7916 0.839234C52.7925 0.944327 52.7718 1.04848 52.7307 1.14523C52.6897 1.24198 52.6292 1.32926 52.553 1.40166V1.40166ZM52.553 9.07109H51.4111V2.98668H52.553V9.07109Z" fill="#747577"/>
<path d="M56.8305 9.27561C56.2238 9.30036 55.6255 9.12686 55.1262 8.78135C54.6827 8.4643 54.3396 8.02655 54.1377 7.52016L55.1603 7.09408C55.2789 7.44684 55.5097 7.75109 55.8174 7.96036C56.1252 8.16963 56.4929 8.27241 56.8646 8.25302C57.1719 8.26448 57.4754 8.18119 57.7338 8.01441C57.843 7.94937 57.9335 7.85704 57.9962 7.74648C58.059 7.63592 58.0919 7.51094 58.0917 7.38381C58.0917 6.99182 57.802 6.71913 57.2566 6.56574L56.0124 6.27601C55.6039 6.16953 55.2251 5.97136 54.9046 5.69654C54.7316 5.56627 54.593 5.3957 54.5009 5.19965C54.4089 5.00361 54.3661 4.78804 54.3763 4.57169C54.3721 4.30975 54.4359 4.0512 54.5613 3.82122C54.6868 3.59124 54.8696 3.39767 55.0921 3.25936C55.591 2.91117 56.1883 2.73197 56.7964 2.74807C57.3047 2.73642 57.8063 2.86623 58.2451 3.12302C58.6649 3.35815 58.9902 3.73159 59.1654 4.17969L58.1599 4.58873C58.045 4.32091 57.8472 4.09697 57.5957 3.94974C57.3442 3.80252 57.0521 3.73975 56.7623 3.77066C56.4572 3.75829 56.1551 3.8353 55.8931 3.99222C55.7913 4.04699 55.7059 4.12804 55.646 4.22695C55.5861 4.32585 55.5537 4.439 55.5523 4.55464C55.5523 4.91255 55.825 5.15116 56.3533 5.27046L57.5804 5.56019C58.0627 5.64732 58.5045 5.88616 58.8416 6.24192C59.1118 6.54821 59.263 6.94133 59.2677 7.34973C59.2704 7.61719 59.21 7.88152 59.0916 8.12135C58.9732 8.36117 58.8 8.56975 58.586 8.73022C58.0829 9.1123 57.4615 9.30534 56.8305 9.27561V9.27561Z" fill="#747577"/>
<path d="M63.3242 9.17364C63.0581 9.19074 62.7913 9.1543 62.5395 9.06647C62.2878 8.97865 62.0562 8.84123 61.8585 8.66234C61.6823 8.46692 61.5476 8.23775 61.4627 7.98873C61.3777 7.73971 61.3442 7.47602 61.3642 7.21367V3.99251H60.2734V2.98696H61.3642V1.07812H62.5061V2.98696H64.0059V4.0266H62.5061V7.16254C62.5061 7.82723 62.7788 8.15105 63.3242 8.15105C63.5188 8.17243 63.7158 8.15505 63.9036 8.09992L64.3127 9.07138C63.9953 9.18046 63.6572 9.21544 63.3242 9.17364V9.17364Z" fill="#747577"/>
<path d="M68.318 9.27564C67.8992 9.29096 67.4819 9.21679 67.0939 9.05809C66.706 8.89939 66.3564 8.6598 66.0683 8.35531C65.4903 7.71024 65.1795 6.8693 65.1991 6.00335C65.183 5.15947 65.4806 4.33962 66.0342 3.70252C66.3018 3.39301 66.6347 3.14682 67.0091 2.98176C67.3834 2.8167 67.7898 2.73689 68.1987 2.7481C68.6048 2.72937 69.0101 2.7989 69.3867 2.9519C69.7633 3.1049 70.1023 3.33773 70.3802 3.63435C70.9439 4.29148 71.2364 5.13845 71.1983 6.00335V6.22491H66.341C66.3471 6.7747 66.5672 7.30047 66.9546 7.69063C67.3177 8.03498 67.8006 8.22447 68.301 8.21897C68.6583 8.24689 69.0153 8.16145 69.3213 7.97481C69.6273 7.78817 69.8666 7.50982 70.0053 7.17933L71.0279 7.60541C70.819 8.08928 70.476 8.50326 70.0394 8.79843C69.5278 9.12963 68.9271 9.29617 68.318 9.27564V9.27564ZM70.0223 5.2705C69.9803 4.89135 69.8123 4.53728 69.5451 4.26495C69.3656 4.10324 69.1554 3.9792 68.9271 3.90015C68.6987 3.82111 68.4569 3.78868 68.2158 3.80478C67.8117 3.79998 67.4191 3.93891 67.108 4.19678C66.7895 4.47896 66.5687 4.85489 66.4774 5.2705H70.0223Z" fill="#747577"/>
<path d="M73.8398 2.98653V3.83869C74.0254 3.51993 74.2971 3.26001 74.6238 3.08879C74.9765 2.88667 75.3762 2.78087 75.7827 2.78201C76.1003 2.76943 76.4169 2.82532 76.7109 2.94589C77.005 3.06646 77.2697 3.24888 77.487 3.48078C77.9051 4.01349 78.1169 4.67918 78.0835 5.35553V9.10503H77.0269V5.52596C77.0269 4.40111 76.5156 3.82164 75.51 3.82164C75.2859 3.81555 75.0636 3.86347 74.8619 3.96136C74.6602 4.05925 74.485 4.20423 74.3511 4.38407C74.0478 4.75361 73.8849 5.21839 73.8909 5.6964V9.10503H72.749V2.98653H73.8398Z" fill="#747577"/>
<path d="M83.8101 3.68565C84.1077 3.38779 84.4611 3.1515 84.85 2.99029C85.2389 2.82907 85.6558 2.74609 86.0769 2.74609C86.4979 2.74609 86.9148 2.82907 87.3037 2.99029C87.6927 3.1515 88.046 3.38779 88.3436 3.68565C88.915 4.32586 89.2308 5.15395 89.2308 6.01204C89.2308 6.87014 88.915 7.69823 88.3436 8.33844C88.046 8.6363 87.6927 8.87259 87.3037 9.0338C86.9148 9.19501 86.4979 9.27799 86.0769 9.27799C85.6558 9.27799 85.2389 9.19501 84.85 9.0338C84.4611 8.87259 84.1077 8.6363 83.8101 8.33844C83.5144 8.02784 83.2837 7.66132 83.1315 7.26037C82.9793 6.85942 82.9087 6.43212 82.9239 6.00352C82.9101 5.57765 82.9813 5.1533 83.1335 4.7553C83.2857 4.35731 83.5157 3.99366 83.8101 3.68565V3.68565ZM84.6623 7.62263C84.845 7.81074 85.0635 7.96028 85.3051 8.0624C85.5466 8.16452 85.8061 8.21714 86.0684 8.21714C86.3306 8.21714 86.5901 8.16452 86.8316 8.0624C87.0732 7.96028 87.2917 7.81074 87.4744 7.62263C87.8596 7.17441 88.0713 6.60301 88.0713 6.01204C88.0713 5.42108 87.8596 4.84968 87.4744 4.40146C87.2917 4.21335 87.0732 4.0638 86.8316 3.96168C86.5901 3.85957 86.3306 3.80695 86.0684 3.80695C85.8061 3.80695 85.5466 3.85957 85.3051 3.96168C85.0635 4.0638 84.845 4.21335 84.6623 4.40146C84.2771 4.84968 84.0654 5.42108 84.0654 6.01204C84.0654 6.60301 84.2771 7.17441 84.6623 7.62263V7.62263Z" fill="#747577"/>
<path d="M91.7523 2.98657V3.83873C91.9332 3.51632 92.2062 3.25522 92.5363 3.08883C92.8828 2.88658 93.277 2.78066 93.6782 2.78205C93.9962 2.766 94.3138 2.8203 94.6084 2.94109C94.903 3.06187 95.1673 3.24616 95.3825 3.48082C95.8138 4.00728 96.0327 4.67598 95.9961 5.35557V9.10507H94.9224V5.526C94.9224 4.40115 94.4281 3.82168 93.4055 3.82168C93.1816 3.817 92.9598 3.86554 92.7583 3.96332C92.5568 4.06109 92.3814 4.20531 92.2466 4.38411C91.9544 4.75871 91.7982 5.22142 91.8035 5.69643V9.10507H90.6445V2.98657H91.7523Z" fill="#747577"/>
</svg>
